<svg width="100" height="108" viewBox="0 0 100 108" fill="none" xmlns="http://www.w3.org/2000/svg">
<path d="M82.4151 69.7979C81.5279 69.0206 80.69 68.2865 80.285 67.5578C80.2528 67.499 80.2178 67.4394 80.1681 67.3573C78.618 64.8765 78.0361 58.6854 77.6887 54.9876C77.6369 54.432 77.5868 53.901 77.5368 53.4039C77.5317 53.3534 77.5258 53.3038 77.5156 53.2278C76.719 47.6577 74.7412 39.6254 69.8416 32.9935C66.4517 28.4048 62.2404 25.306 57.3076 23.7661C56.7996 20.1881 53.7165 17.4279 50.0004 17.4279C46.2843 17.4279 43.2005 20.1888 42.6931 23.7669C37.7607 25.3057 33.549 28.4045 30.1591 32.9939C25.2596 39.6247 23.2814 47.6573 22.4851 53.2274L22.4793 53.272C22.4731 53.3198 22.4676 53.3666 22.4647 53.4009C22.4143 53.901 22.3642 54.4309 22.3124 54.9861C21.9646 58.6858 21.3828 64.8779 19.8184 67.3806C19.7907 67.4263 19.7647 67.4719 19.7253 67.5406C19.3111 68.2861 18.4732 69.021 17.5867 69.7986C15.4065 71.7089 10.8704 75.685 14.6077 82.6245C15.3306 83.9675 16.7276 84.8017 18.2529 84.8017H81.7482C83.2724 84.8017 84.6687 83.9679 85.393 82.6248C89.1296 75.6865 84.5953 71.71 82.4151 69.7979Z" fill="#F74C48"/>
<path d="M57.2126 91.7354H42.5243C41.9209 91.7354 41.3537 91.9994 40.9676 92.4589C40.2437 93.3216 40.4464 94.4715 40.5673 95.1581L40.5768 95.2133C41.376 99.7939 45.3353 103.119 49.9916 103.119C54.734 103.119 58.8033 99.5814 59.456 94.8966L59.4703 94.8199C59.551 94.3944 59.7395 93.3983 59.036 92.5484C58.7843 92.2449 58.2131 91.7354 57.2126 91.7354Z" fill="#F74C48"/>
<path d="M17.174 27.9249C17.3635 24.787 18.5733 21.8917 20.6716 19.5518C22.7934 17.1868 25.5712 15.6656 28.7047 15.1524C31.6906 14.6633 33.7152 11.8465 33.2261 8.86016C32.7374 5.87422 29.9224 3.84779 26.9339 4.33869C21.3886 5.24635 16.2678 8.05076 12.5144 12.2351C8.80092 16.3749 6.57142 21.712 6.23611 27.2638C6.05349 30.2841 8.35422 32.8807 11.3745 33.0629C11.487 33.0699 11.5984 33.0731 11.7098 33.0731C14.5847 33.0735 16.9983 30.8327 17.174 27.9249Z" fill="#F74C48"/>
<path d="M87.4863 12.2351C83.7329 8.05114 78.6117 5.24672 73.0664 4.33907C70.079 3.84817 67.2633 5.87423 66.7742 8.86054C66.2851 11.8468 68.3097 14.664 71.2957 15.1528C74.4296 15.6659 77.2077 17.1872 79.3291 19.5522C81.4278 21.892 82.6372 24.7874 82.8264 27.9249C83.0017 30.8331 85.4149 33.0739 88.2902 33.0739C88.4012 33.0739 88.5126 33.0706 88.6251 33.064C91.6458 32.8818 93.9461 30.2859 93.7639 27.2653C93.4297 21.7131 91.1998 16.3756 87.4863 12.2351Z" fill="#F74C48"/>
</svg>
