<svg width="100" height="100" viewBox="0 0 100 100" fill="none" xmlns="http://www.w3.org/2000/svg">
<path d="M100 76.4796H0V76.5296H100V76.4796Z" fill="#EBEBEB"/>
<path d="M89.9802 79.6988H83.3558V79.7488H89.9802V79.6988Z" fill="#EBEBEB"/>
<path d="M80.8374 79.6988H66.6762V79.7488H80.8374V79.6988Z" fill="#EBEBEB"/>
<path d="M58.8666 77.8416H55.0282V77.8916H58.8666V77.8416Z" fill="#EBEBEB"/>
<path d="M17.3498 78.1776H10.4918V78.2276H17.3498V78.1776Z" fill="#EBEBEB"/>
<path d="M31.6 78.1776H19.1304V78.2276H31.6V78.1776Z" fill="#EBEBEB"/>
<path d="M45.0294 79.0222H37.6666V79.0722H45.0294V79.0222Z" fill="#EBEBEB"/>
<path d="M47.4028 67.56H8.78302C8.15362 67.56 7.64142 67.0478 7.64142 66.4184V12.132C7.64142 11.5026 8.15362 10.9904 8.78302 10.9904H47.4028C48.032 10.9904 48.5442 11.5026 48.5442 12.132V66.4184C48.5442 67.0478 48.032 67.56 47.4028 67.56ZM8.78302 11.0406C8.18102 11.0406 7.69142 11.5302 7.69142 12.1322V66.4186C7.69142 67.0206 8.18102 67.5102 8.78302 67.5102H47.4028C48.0046 67.5102 48.4942 67.0206 48.4942 66.4186V12.132C48.4942 11.5302 48.0046 11.0404 47.4028 11.0404L8.78302 11.0406Z" fill="#EBEBEB"/>
<path d="M90.662 67.56H52.0424C51.413 67.56 50.901 67.0478 50.901 66.4184V12.132C50.901 11.5026 51.4132 10.9904 52.0424 10.9904H90.662C91.2916 10.9904 91.8036 11.5026 91.8036 12.132V66.4184C91.8038 67.0478 91.2916 67.56 90.662 67.56ZM52.0424 11.0406C51.4406 11.0406 50.951 11.5302 50.951 12.1322V66.4186C50.951 67.0206 51.4406 67.5102 52.0424 67.5102H90.662C91.264 67.5102 91.7536 67.0206 91.7536 66.4186V12.132C91.7536 11.5302 91.264 11.0404 90.662 11.0404L52.0424 11.0406Z" fill="#EBEBEB"/>
<path d="M15.1668 38.6445H42.3066V15.1303L15.1668 15.1303L15.1668 38.6445Z" fill="#E6E6E6"/>
<path d="M14.5636 38.6445H41.7034V15.1303L14.5636 15.1303L14.5636 38.6445Z" fill="#F5F5F5"/>
<path d="M40.6208 37.8041L40.6208 15.9705L15.6462 15.9705L15.6462 37.8041H40.6208Z" fill="#FAFAFA"/>
<path d="M30.6042 37.8042L35.129 15.9706H25.6628L21.1378 37.8042H30.6042Z" fill="white"/>
<path d="M16.1021 37.8042L16.1021 15.9706H15.6461L15.6461 37.8042H16.1021Z" fill="#E6E6E6"/>
<path d="M15.0114 33.8891H41.2556V32.7609H15.0114V33.8891Z" fill="#F5F5F5"/>
<path d="M41.0493 75.2888H45.3829V56.4944H41.0493V75.2888Z" fill="#F0F0F0"/>
<path d="M12.7445 76.4797H44.5507V75.2889H12.7445V76.4797Z" fill="#F0F0F0"/>
<path d="M41.0494 56.4945H11.9126V75.2889H41.0494V56.4945Z" fill="#F5F5F5"/>
<path d="M39.3454 58.8076H13.6162V64.9714H39.3454V58.8076Z" fill="#F0F0F0"/>
<path d="M39.3454 66.8114H13.6162V72.9752H39.3454V66.8114Z" fill="#F0F0F0"/>
<path d="M19.5464 62.3122H33.4152C33.6476 62.3122 33.8378 62.122 33.8378 61.8896C33.8378 61.6572 33.6476 61.467 33.4152 61.467H19.5464C19.314 61.467 19.1238 61.6572 19.1238 61.8896C19.1238 62.122 19.314 62.3122 19.5464 62.3122Z" fill="#F5F5F5"/>
<path d="M19.5464 70.316H33.4152C33.6476 70.316 33.8378 70.1258 33.8378 69.8934C33.8378 69.661 33.6476 69.4708 33.4152 69.4708H19.5464C19.314 69.4708 19.1238 69.661 19.1238 69.8934C19.1238 70.1258 19.314 70.316 19.5464 70.316Z" fill="#F5F5F5"/>
<path d="M86.3248 27.4204C88.7928 26.7402 89.637 22.2626 83.4 20.4348C84.7756 24.9378 82.0218 28.6064 86.3248 27.4204Z" fill="#EBEBEB"/>
<path d="M86.8706 29.3642C88.8154 27.2614 86.9758 22.5068 79.9682 24.4492C83.933 27.9182 83.4798 33.0304 86.8706 29.3642Z" fill="#E0E0E0"/>
<path d="M84.9498 29.9034C83.3212 28.2912 85.6538 22.6818 91.0298 25.2814C87.9834 28.194 87.7892 32.714 84.9498 29.9034Z" fill="#FAFAFA"/>
<path d="M83.3268 33.0444H88.0646L88.4222 29.8388H82.9692L83.3268 33.0444Z" fill="#E6E6E6"/>
<path d="M82.9158 30.4118H88.4754C88.6708 30.4118 88.8292 30.2534 88.8292 30.058C88.8292 29.8626 88.6708 29.7042 88.4754 29.7042H82.9158C82.7204 29.7042 82.562 29.8626 82.562 30.058C82.5622 30.2534 82.7206 30.4118 82.9158 30.4118Z" fill="#E6E6E6"/>
<path d="M43.4618 71.0502V65.6208H47.9848V60.1914H52.5078V54.7622H57.031V49.3326H61.554V43.9032H66.077V38.474H70.6V33.0444H75.1232H100V76.4796H43.4618H38.9386V71.0502H43.4618Z" fill="#FAFAFA"/>
<path d="M68.3386 71.0502V65.6208H72.8616V60.1914H77.3846V54.7622H81.9078V49.3326H86.4308V43.9032H90.9538V38.474H95.477V33.0444H100V38.474V76.4796H68.3386H63.8156V71.0502H68.3386Z" fill="#E0E0E0"/>
<path d="M63.8154 71.0502H38.672V72.679H63.8154V71.0502Z" fill="#EBEBEB"/>
<path d="M68.3386 65.6208H43.1952V67.2496H68.3386V65.6208Z" fill="#EBEBEB"/>
<path d="M72.8616 60.1914H47.7182V61.8202H72.8616V60.1914Z" fill="#EBEBEB"/>
<path d="M77.3846 54.762H52.2412V56.3908H77.3846V54.762Z" fill="#EBEBEB"/>
<path d="M81.9078 49.3326H56.7644V50.9614H81.9078V49.3326Z" fill="#EBEBEB"/>
<path d="M86.4308 43.9032H61.2874V45.532H86.4308V43.9032Z" fill="#EBEBEB"/>
<path d="M90.9538 38.4738H65.8104V40.1026H90.9538V38.4738Z" fill="#EBEBEB"/>
<path d="M95.477 33.0444H70.3336V34.6732H95.477V33.0444Z" fill="#EBEBEB"/>
<path d="M50 85.5122C71.4164 85.5122 88.7778 84.4983 88.7778 83.2476C88.7778 81.9969 71.4164 80.983 50 80.983C28.5836 80.983 11.2222 81.9969 11.2222 83.2476C11.2222 84.4983 28.5836 85.5122 50 85.5122Z" fill="#F5F5F5"/>
<path d="M66.939 31.7252C66.9046 32.3246 66.8344 32.8756 66.7562 33.446C66.6776 34.0118 66.572 34.5732 66.4512 35.1332C66.215 36.2534 65.8896 37.3646 65.4414 38.4478L65.2608 38.8512L65.2156 38.9518L65.193 39.002C65.1856 39.0184 65.1798 39.0326 65.1622 39.0662C65.1058 39.1788 65.0336 39.2974 64.9314 39.413C64.8288 39.5272 64.7002 39.6382 64.5486 39.7154C64.4006 39.7926 64.2372 39.8434 64.0916 39.859C63.7946 39.8942 63.5622 39.8418 63.3654 39.7836C62.979 39.6572 62.7004 39.4828 62.4376 39.3048C62.1792 39.1232 61.948 38.9314 61.7266 38.7348C60.8576 37.935 60.1336 37.0786 59.4668 36.1476L60.1306 35.5866C60.5202 35.9562 60.9268 36.3294 61.333 36.684C61.7376 37.0418 62.1564 37.3806 62.5778 37.6836C62.7876 37.8348 63.0002 37.976 63.2092 38.0924C63.414 38.209 63.6266 38.3044 63.7734 38.3332C63.8428 38.3476 63.8904 38.3392 63.8686 38.3344C63.8488 38.3254 63.7598 38.367 63.7412 38.3908C63.7294 38.4012 63.7292 38.4002 63.7324 38.388L63.7966 38.221L63.9364 37.8576C64.2834 36.8718 64.5452 35.8376 64.747 34.7862C64.852 34.2614 64.9264 33.7288 65.0058 33.1978C65.0816 32.6712 65.1424 32.1212 65.1884 31.6154L66.939 31.7252Z" fill="#FFC3BD"/>
<path d="M65.7276 29.5244C64.9822 29.7142 64.4608 32.7814 64.4608 32.7814L66.5148 34.1782C66.5148 34.1782 68.4842 31.0838 67.9108 30.2644C67.3136 29.411 66.8152 29.2474 65.7276 29.5244Z" fill="#407BFF"/>
<path d="M65.7276 29.5244C64.9822 29.7142 64.4608 32.7814 64.4608 32.7814L66.5148 34.1782C66.5148 34.1782 68.4842 31.0838 67.9108 30.2644C67.3136 29.411 66.8152 29.2474 65.7276 29.5244Z" fill="#407BFF"/>
<path opacity="0.4" d="M65.7276 29.5244C64.9822 29.7142 64.4608 32.7814 64.4608 32.7814L66.5148 34.1782C66.5148 34.1782 68.4842 31.0838 67.9108 30.2644C67.3136 29.411 66.8152 29.2474 65.7276 29.5244Z" fill="black"/>
<path opacity="0.3" d="M65.7948 30.2094L65.2222 33.301L66.3768 34.0838L65.7948 30.2094Z" fill="black"/>
<path d="M60.1692 35.457L59.1922 33.9138L58.6382 35.6674C58.6382 35.6674 59.4396 36.5078 60.1642 36.3074L60.1692 35.457Z" fill="#FFC3BD"/>
<path d="M57.7598 33.4034L57.3754 34.8968L58.638 35.6676L59.1922 33.914L57.7598 33.4034Z" fill="#FFC3BD"/>
<path d="M69.7602 81.151H67.9518L67.831 76.963H69.6396L69.7602 81.151Z" fill="#FFC3BD"/>
<path d="M85.7188 72.7506L84.3404 73.9214L81.186 71.106L82.5642 69.9352L85.7188 72.7506Z" fill="#FFC3BD"/>
<path d="M83.9626 73.781L85.2994 72.251C85.348 72.1954 85.4262 72.184 85.4874 72.2236L86.8502 73.107C86.9916 73.1986 87.016 73.4104 86.9016 73.537C86.4264 74.0624 86.1704 74.2922 85.5826 74.965C85.221 75.379 84.7356 76.0212 84.2362 76.593C83.7478 77.1522 83.145 76.7012 83.3016 76.4184C84.0046 75.1506 83.8352 74.7054 83.8474 74.082C83.8498 73.9694 83.8914 73.8626 83.9626 73.781Z" fill="#263238"/>
<path d="M67.8898 80.9416H69.9216C69.9956 80.9416 70.0556 80.993 70.066 81.0652L70.2976 82.6728C70.3216 82.8396 70.1782 82.9974 70.0076 82.9944C69.2992 82.9822 68.9578 82.9406 68.0644 82.9406C67.5146 82.9406 66.3778 82.9976 65.6186 82.9976C64.8762 82.9976 64.819 82.247 65.1352 82.179C66.5524 81.8742 67.1102 81.4538 67.5876 81.0528C67.6736 80.9806 67.7816 80.9416 67.8898 80.9416Z" fill="#263238"/>
<path opacity="0.2" d="M67.8314 76.9642L67.8934 79.1228H69.7026L69.6406 76.9642H67.8314Z" fill="black"/>
<path opacity="0.2" d="M82.5654 69.9356L81.1866 71.1068L82.8132 72.5576L84.1922 71.3862L82.5654 69.9356Z" fill="black"/>
<path d="M65.7276 29.5244C65.7276 29.5244 64.866 29.8278 66.5918 40.4394C69.5064 40.4394 72.5184 40.4394 73.9368 40.4394C73.8136 37.45 73.81 35.6068 75.2388 29.472C75.2388 29.472 73.6998 29.1372 72.1198 29.061C70.8838 29.0014 69.8712 28.962 68.7846 29.0612C67.352 29.1918 65.7276 29.5244 65.7276 29.5244Z" fill="#407BFF"/>
<path opacity="0.4" d="M65.7276 29.5244C65.7276 29.5244 64.866 29.8278 66.5918 40.4394C69.5064 40.4394 72.5184 40.4394 73.9368 40.4394C73.8136 37.45 73.81 35.6068 75.2388 29.472C75.2388 29.472 73.6998 29.1372 72.1198 29.061C70.8838 29.0014 69.8712 28.962 68.7846 29.0612C67.352 29.1918 65.7276 29.5244 65.7276 29.5244Z" fill="black"/>
<path d="M72.12 29.06C70.884 29.002 69.872 28.962 68.784 29.062C68.604 29.078 68.42 29.098 68.238 29.12C68.116 29.33 68.024 29.612 68.138 29.9C68.372 30.482 69.216 30.55 69.832 30.55C72.106 30.55 72.49 29.222 72.506 29.166L72.528 29.086C72.392 29.076 72.256 29.066 72.12 29.06Z" fill="white"/>
<path d="M71.7894 25.3056C71.579 26.3788 71.369 28.345 72.1198 29.061C72.1198 29.061 71.8264 30.1496 69.8324 30.1496C67.6398 30.1496 68.7846 29.0612 68.7846 29.0612C69.9812 28.7754 69.9504 27.8876 69.742 27.0538L71.7894 25.3056Z" fill="#FFC3BD"/>
<path opacity="0.2" d="M70.9546 26.0188L69.7428 27.0528C69.7928 27.2502 69.8318 27.4502 69.8456 27.6448C70.3028 27.5788 70.9308 27.077 70.9792 26.5982C71.0036 26.3594 70.9936 26.13 70.9546 26.0188Z" fill="black"/>
<path d="M70.5428 19.4694C70.3566 18.8408 70.1962 17.8474 71.3198 17.4086C70.8826 16.8728 70.7756 15.8646 71.3128 15.2656C71.85 14.6668 72.6724 14.888 72.6724 14.888C72.6724 14.888 72.9122 13.426 74.69 13.682C76.4678 13.9378 75.676 15.1148 75.676 15.1148C75.676 15.1148 78.1026 14.6342 78.2646 16.92C78.4266 19.2058 77.0336 18.9238 77.0336 18.9238C77.0336 18.9238 78.1158 19.8312 77.5166 20.8292C76.9174 21.8274 75.5304 21.4834 75.5304 21.4834C75.5304 21.4834 74.8784 23.2468 73.3428 22.2434C71.8072 21.2402 70.5428 19.4694 70.5428 19.4694Z" fill="#263238"/>
<path d="M66.9394 20.7966C66.338 21.5712 66.6036 22.4504 67.1338 22.7892C68.424 23.6134 70.2898 20.159 69.8046 19.745C69.3196 19.3308 67.5408 20.022 66.9394 20.7966Z" fill="#263238"/>
<path d="M72.358 18.9522C71.5094 18.61 70.6504 18.9674 70.3816 19.4842C69.7274 20.7418 72.6974 23.0084 73.5576 21.4356C74.0684 20.5018 73.2328 19.3048 72.358 18.9522Z" fill="#407BFF"/>
<path d="M71.9956 22.7946C72.057 24.5884 72.1214 25.3464 71.3084 26.348C70.0856 27.8546 67.8688 27.5378 67.2728 25.7986C66.7362 24.233 66.726 21.5626 68.4034 20.6856C70.0562 19.8214 71.9342 21.0008 71.9956 22.7946Z" fill="#FFC3BD"/>
<path d="M71.7292 23.741C70.9354 23.4438 70.7282 22.509 70.859 22.1498C70.4622 22.1332 69.5836 21.9902 69.2548 21.4934C68.6308 21.8858 67.3128 22.2922 67.1694 21.6286C67.026 20.965 69.0168 19.2496 70.5204 19.1182C72.3078 18.962 74.073 20.7202 73.6172 22.4008C73.1612 24.0814 71.7292 23.741 71.7292 23.741Z" fill="#263238"/>
<path d="M66.5918 40.4394C66.5918 40.4394 65.1654 54.3704 65.2838 59.8854C65.407 65.6218 67.5092 78.7048 67.5092 78.7048H69.9546C69.9546 78.7048 69.5676 65.957 69.7838 60.3232C70.0194 54.1814 71.9704 40.4392 71.9704 40.4392H66.5918V40.4394Z" fill="#263238"/>
<path d="M70.1666 78.7924H67.2974L67.0868 77.8772L70.3 77.7652L70.1666 78.7924Z" fill="#407BFF"/>
<path opacity="0.2" d="M69.76 43.9056C67.956 47.5346 69.3978 54.155 70.0358 56.618C70.363 52.9188 70.9144 48.397 71.3444 45.0764C71.071 43.1974 70.592 42.2324 69.76 43.9056Z" fill="black"/>
<path d="M68.5316 40.4394C68.5316 40.4394 70.1954 54.9224 71.4518 59.5722C72.9436 65.0926 82.2096 72.5218 82.2096 72.5218L84.0892 70.9252C84.0892 70.9252 77.3732 62.855 76.2326 59.9466C73.7984 53.7396 75.882 44.4896 73.9366 40.4394H68.5316Z" fill="#263238"/>
<path d="M84.3894 70.8394L82.0576 72.82L81.1866 72.298L83.8244 69.8444L84.3894 70.8394Z" fill="#407BFF"/>
<path d="M69.3386 23.5522C69.3526 23.6974 69.2868 23.8226 69.192 23.8316C69.0972 23.8406 69.0088 23.7304 68.995 23.5852C68.981 23.44 69.0468 23.3148 69.1416 23.3058C69.2364 23.2968 69.3246 23.407 69.3386 23.5522Z" fill="#263238"/>
<path d="M67.6972 23.7096C67.7112 23.8548 67.6454 23.9798 67.5506 23.989C67.4556 23.9982 67.3674 23.8878 67.3536 23.7426C67.3396 23.5974 67.4054 23.4722 67.5002 23.4632C67.595 23.4542 67.6834 23.5644 67.6972 23.7096Z" fill="#263238"/>
<path d="M67.5428 23.4672L67.1844 23.4002C67.1844 23.4002 67.3896 23.6554 67.5428 23.4672Z" fill="#263238"/>
<path d="M68.155 23.9176C68.155 23.9176 67.9686 24.5664 67.7262 24.894C67.935 25.0546 68.2532 24.9416 68.2532 24.9416L68.155 23.9176Z" fill="#ED847E"/>
<path d="M69.0604 25.42C68.9864 25.4406 68.906 25.456 68.8188 25.4644C68.7952 25.4666 68.7744 25.4494 68.772 25.4258C68.7698 25.4024 68.7864 25.3816 68.8106 25.379C69.4474 25.3184 69.7028 24.8444 69.7054 24.8396C69.7164 24.8186 69.7422 24.8104 69.7632 24.8214C69.7842 24.8324 69.7924 24.8582 69.7814 24.8792C69.7718 24.8976 69.5664 25.2794 69.0604 25.42Z" fill="#263238"/>
<path d="M72.4192 24.0422C72.3762 24.4118 72.1664 24.727 71.9236 24.913C71.5584 25.1926 71.2054 24.9072 71.1644 24.4732C71.1274 24.0826 71.2728 23.4666 71.708 23.3574C72.1368 23.2496 72.4684 23.6196 72.4192 24.0422Z" fill="#FFC3BD"/>
<path d="M69.5142 22.5232C69.4924 22.5292 69.4682 22.5266 69.4472 22.5142C69.1196 22.3176 68.8346 22.452 68.8314 22.4536C68.7892 22.4736 68.7376 22.4566 68.7168 22.414C68.6962 22.3714 68.7138 22.3202 68.7564 22.2994C68.7712 22.2922 69.1288 22.1232 69.5354 22.3672C69.576 22.3916 69.589 22.4442 69.5648 22.4848C69.5528 22.5044 69.5346 22.5176 69.5142 22.5232Z" fill="#263238"/>
<path d="M66.8942 23.022C66.8736 23.0278 66.851 23.0258 66.8308 23.015C66.7892 22.9926 66.7734 22.9406 66.7956 22.899C67.0194 22.4814 67.413 22.4428 67.4298 22.4414C67.477 22.4374 67.5184 22.4722 67.5224 22.5194C67.5264 22.5664 67.4916 22.6078 67.4446 22.6122C67.4292 22.6134 67.1244 22.6478 66.9466 22.98C66.9354 23.0014 66.916 23.016 66.8942 23.022Z" fill="#263238"/>
<path d="M75.9886 31.4228C76.4042 32.435 76.745 33.4354 77.0418 34.475C77.3342 35.5128 77.5888 36.5662 77.7054 37.6828C77.7398 37.9588 77.7492 38.2478 77.7628 38.533L77.764 38.5598V38.6044L77.7616 38.6966C77.7574 38.7546 77.7522 38.8136 77.7432 38.8662C77.727 38.9752 77.7026 39.0714 77.6756 39.1626C77.6208 39.3436 77.5518 39.4996 77.4788 39.644C77.1832 40.2126 76.8308 40.6442 76.4652 41.0622C75.7238 41.882 74.9344 42.5924 74.0716 43.247L73.4856 42.6052C74.1522 41.8282 74.825 41.0292 75.3936 40.2128C75.6734 39.808 75.9426 39.3856 76.0944 39.0046C76.1308 38.9112 76.1578 38.8224 76.1732 38.751C76.1802 38.716 76.1848 38.6842 76.1844 38.663C76.1856 38.6508 76.1836 38.6442 76.1836 38.637C76.1834 38.6338 76.1818 38.633 76.1816 38.631L76.1786 38.6044C76.1526 38.3672 76.1336 38.1328 76.089 37.8904C75.939 36.9268 75.6652 35.9442 75.372 34.9716C75.0658 34.0044 74.7242 33.021 74.3644 32.0864L75.9886 31.4228Z" fill="#FFC3BD"/>
<path d="M75.2388 29.4718C75.9746 29.6956 76.8584 32.2294 76.8584 32.2294L74.0034 34.2706C74.0034 34.2706 72.9622 32.1554 73.2714 31.2042C73.5936 30.2138 74.399 29.2166 75.2388 29.4718Z" fill="#407BFF"/>
<path opacity="0.4" d="M75.2388 29.4718C75.9746 29.6956 76.8584 32.2294 76.8584 32.2294L74.0034 34.2706C74.0034 34.2706 72.9622 32.1554 73.2714 31.2042C73.5936 30.2138 74.399 29.2166 75.2388 29.4718Z" fill="black"/>
<path d="M83.4686 74.654C83.3978 74.654 83.3336 74.6212 83.2774 74.5562C83.2296 74.501 83.2322 74.4478 83.2428 74.4128C83.3096 74.1918 83.9378 74.0114 84.0092 73.9916C84.0254 73.987 84.0432 73.9926 84.054 74.006C84.0646 74.0192 84.0666 74.0378 84.0586 74.0528C83.9464 74.2656 83.7238 74.6266 83.4954 74.6526C83.4864 74.6536 83.4776 74.654 83.4686 74.654ZM83.9328 74.1038C83.6836 74.1832 83.36 74.3212 83.325 74.4376C83.3206 74.4522 83.3186 74.4726 83.3424 74.5002C83.3866 74.5514 83.434 74.5732 83.486 74.5674C83.609 74.5534 83.773 74.3822 83.9328 74.1038Z" fill="#407BFF"/>
<path d="M83.7342 74.1112C83.5256 74.1112 83.2912 74.0692 83.211 73.9648C83.1868 73.9332 83.1552 73.867 83.2158 73.7776C83.2544 73.7208 83.309 73.6876 83.3782 73.6786C83.6376 73.6456 84.0324 73.9858 84.049 74.0004C84.0604 74.0104 84.0658 74.0258 84.0628 74.0408C84.06 74.0558 84.0492 74.068 84.035 74.0732C83.9664 74.0972 83.8546 74.1112 83.7342 74.1112ZM83.4164 73.762C83.407 73.762 83.3978 73.7626 83.389 73.7638C83.3446 73.7696 83.311 73.7898 83.2866 73.8258C83.2556 73.8714 83.2662 73.8962 83.2788 73.9126C83.3562 74.013 83.7118 74.0514 83.9282 74.0124C83.7988 73.9118 83.5722 73.762 83.4164 73.762Z" fill="#407BFF"/>
<path d="M67.2108 81.2578C67.031 81.2578 66.8652 81.23 66.7722 81.1464C66.7132 81.0934 66.6872 81.0232 66.6948 80.9378C66.6994 80.8868 66.7244 80.8474 66.7674 80.8238C66.989 80.7022 67.71 81.0706 67.7914 81.113C67.8076 81.1214 67.8166 81.139 67.814 81.157C67.8114 81.175 67.7978 81.1894 67.78 81.193C67.6264 81.2236 67.41 81.2578 67.2108 81.2578ZM66.8886 80.8836C66.8554 80.8836 66.8284 80.8884 66.8086 80.8992C66.791 80.9088 66.7822 80.9232 66.7802 80.9456C66.775 81.0034 66.7912 81.0484 66.8296 81.0828C66.9394 81.1816 67.237 81.199 67.6376 81.1322C67.3894 81.013 67.0598 80.8836 66.8886 80.8836Z" fill="#407BFF"/>
<path d="M67.7716 81.1938C67.7656 81.1938 67.7596 81.1926 67.754 81.19C67.5384 81.0926 67.112 80.7026 67.1454 80.4978C67.1534 80.4494 67.1876 80.389 67.3062 80.377C67.3946 80.3688 67.4738 80.393 67.5434 80.4508C67.7706 80.6402 67.8124 81.127 67.8142 81.1476C67.8154 81.1628 67.8086 81.1774 67.7962 81.186C67.789 81.1912 67.7802 81.1938 67.7716 81.1938ZM67.3408 80.4608C67.3322 80.4608 67.3236 80.4612 67.315 80.4622C67.2368 80.4702 67.2316 80.5014 67.23 80.5116C67.21 80.6346 67.4994 80.9414 67.719 81.0746C67.698 80.9328 67.6378 80.6408 67.4886 80.5168C67.4438 80.4792 67.3952 80.4608 67.3408 80.4608Z" fill="#407BFF"/>
<path d="M74.0468 40.0084L74.2346 40.6658C74.2604 40.7168 74.2 40.7688 74.115 40.7688H66.5556C66.4894 40.7688 66.4346 40.7364 66.4304 40.6948L66.3642 40.0374C66.3596 39.9918 66.417 39.9532 66.4894 39.9532H73.9272C73.9818 39.9532 74.0302 39.9754 74.0468 40.0084Z" fill="#407BFF"/>
<path opacity="0.3" d="M74.0468 40.0084L74.2346 40.6658C74.2604 40.7168 74.2 40.7688 74.115 40.7688H66.5556C66.4894 40.7688 66.4346 40.7364 66.4304 40.6948L66.3642 40.0374C66.3596 39.9918 66.417 39.9532 66.4894 39.9532H73.9272C73.9818 39.9532 74.0302 39.9754 74.0468 40.0084Z" fill="white"/>
<path d="M73.0478 40.84H73.247C73.2866 40.84 73.3168 40.8196 73.3142 40.7946L73.2208 39.9404C73.218 39.9154 73.1834 39.895 73.1438 39.895H72.9446C72.905 39.895 72.8748 39.9154 72.8774 39.9404L72.9708 40.7946C72.9734 40.8196 73.0082 40.84 73.0478 40.84Z" fill="#263238"/>
<path d="M67.1154 40.84H67.3146C67.3542 40.84 67.3844 40.8196 67.3818 40.7946L67.2884 39.9404C67.2856 39.9154 67.251 39.895 67.2114 39.895H67.0122C66.9726 39.895 66.9424 39.9154 66.945 39.9404L67.0384 40.7946C67.041 40.8196 67.0758 40.84 67.1154 40.84Z" fill="#263238"/>
<path d="M70.0816 40.84H70.2808C70.3204 40.84 70.3508 40.8196 70.348 40.7946L70.2546 39.9404C70.2518 39.9154 70.2172 39.895 70.1776 39.895H69.9784C69.9388 39.895 69.9086 39.9154 69.9112 39.9404L70.0046 40.7946C70.0072 40.8196 70.042 40.84 70.0816 40.84Z" fill="#263238"/>
<path d="M69.1842 23.3098L68.8258 23.2426C68.8258 23.2426 69.0308 23.498 69.1842 23.3098Z" fill="#263238"/>
<path opacity="0.2" d="M62.5636 48.779C53.103 52.4556 42.451 47.7678 38.7736 38.305C35.0962 28.8422 39.787 18.1916 49.2476 14.515C58.7104 10.8374 69.3622 15.5254 73.0398 24.9882C76.7172 34.451 72.0264 45.1014 62.5636 48.779Z" fill="#407BFF"/>
<path opacity="0.1" d="M59.2372 13.5692L44.822 46.3108C44.599 46.1426 44.3802 45.9686 44.1646 45.7912C42.79 44.6542 41.5742 43.3088 40.5656 41.775L40.5648 41.7732L53.0156 13.4936C55.1106 13.1564 57.2132 13.1942 59.2372 13.5692Z" fill="white"/>
<path opacity="0.1" d="M69.4854 19.2504L55.932 50.0314C53.0924 50.036 50.3148 49.3774 47.8118 48.148L62.6112 14.534C65.208 15.5496 67.5696 17.1538 69.4854 19.2504Z" fill="white"/>
<path d="M40.7766 19.2636C47.615 10.9076 59.9334 9.6772 68.2894 16.5154C76.6454 23.3536 77.8758 35.6722 71.0376 44.0282C64.1982 52.3856 51.8796 53.616 43.5236 46.7778C35.1676 39.9394 33.9372 27.621 40.7766 19.2636ZM69.8008 43.0158C76.0796 35.3436 74.9514 24.0324 67.2774 17.7522C59.6034 11.472 48.2926 12.6034 42.0138 20.2756C35.7336 27.9496 36.8618 39.2608 44.5358 45.541C52.2098 51.8214 63.5206 50.6898 69.8008 43.0158Z" fill="#407BFF"/>
<path d="M71.5256 42.9476C73.4514 44.0976 75.2834 45.3622 77.0836 46.6656C78.8834 47.9696 80.6378 49.329 82.3648 50.7218C84.0922 52.1142 85.784 53.5502 87.418 55.0564C88.2368 55.8076 89.0374 56.5808 89.8234 57.372C90.607 58.1662 91.3788 58.9746 92.104 59.84C92.5036 60.3168 92.441 61.027 91.9642 61.4266C91.5998 61.732 91.0966 61.7658 90.7024 61.5526C89.7106 61.0128 88.7656 60.4162 87.832 59.8052C86.9008 59.1914 85.9846 58.5594 85.0864 57.9054C83.2866 56.6014 81.5444 55.2272 79.8378 53.8094C78.131 52.3918 76.4514 50.9412 74.8172 49.4348C73.1836 47.928 71.5816 46.3822 70.0734 44.722C69.643 44.2482 69.6782 43.5154 70.152 43.085C70.5388 42.7338 71.0992 42.6936 71.5256 42.9476Z" fill="#407BFF"/>
<path d="M73.6774 42.4034L71.7458 42.6972L73.129 43.9092C73.129 43.9092 74.2206 43.5132 74.3282 42.769L73.6774 42.4034Z" fill="#FFC3BD"/>
<path d="M70.7028 43.8036L71.9158 44.7556L73.398 43.7882L71.7458 42.6972L70.7028 43.8036Z" fill="#FFC3BD"/>
<path d="M61.5678 45.9098C61.9136 44.9352 62.8848 44.2444 63.9096 44.2444H79.9194C81.1342 44.2444 82.0044 45.2054 81.8632 46.391L77.7286 81.101C77.5874 82.2866 76.4882 83.2476 75.2734 83.2476H24.4688C23.254 83.2476 22.3838 82.2866 22.525 81.101L25.998 51.9458C26.1392 50.7602 27.2384 49.7992 28.4532 49.7992H56.0984C58.4918 49.7992 60.7602 48.1862 61.5678 45.9098Z" fill="#407BFF"/>
<path d="M23.447 81.6496H76.5274L79.552 45.9334H26.4716L23.447 81.6496Z" fill="#F0F0F0"/>
<path d="M23.447 81.6496H76.5274L78.716 45.9334H26.4716L23.447 81.6496Z" fill="#E0E0E0"/>
<path d="M23.447 81.6496H76.5274L78.352 44.8H25.2716L23.447 81.6496Z" fill="#F0F0F0"/>
<path d="M23.447 81.6496H76.5274L77.2494 44.8H25.2716L23.447 81.6496Z" fill="#E0E0E0"/>
<path d="M23.447 81.6496H76.5274L76.8436 43.8H23.7632L23.447 81.6496Z" fill="#F0F0F0"/>
<path d="M23.447 81.6496H76.5274L75.4382 44.5166H22.6994L23.447 81.6496Z" fill="#E0E0E0"/>
<path d="M23.447 81.6496H76.5274L74.952 44.8H21.8716L23.447 81.6496Z" fill="#F0F0F0"/>
<path d="M23.447 81.6496H76.5274L74.0186 45.3556H20.9382L23.447 81.6496Z" fill="#E0E0E0"/>
<path d="M23.447 81.6496H76.5274L73.6186 45.6666H20.5382L23.447 81.6496Z" fill="#F0F0F0"/>
<path d="M50.028 48.1636C50.0628 47.165 50.8136 46.4572 51.8382 46.4572H67.848C69.0628 46.4572 70.2398 47.442 70.477 48.6566L76.8018 81.048C77.039 82.2628 76.2466 83.2474 75.0318 83.2474H24.2272C23.0124 83.2474 21.8354 82.2626 21.5982 81.048L16.3848 54.3482C16.1476 53.1334 16.94 52.1488 18.1548 52.1488H45.8C48.1932 52.1488 49.9468 50.496 50.028 48.1636Z" fill="#407BFF"/>
<path opacity="0.2" d="M50.028 48.1636C50.0628 47.165 50.8136 46.4572 51.8382 46.4572H67.848C69.0628 46.4572 70.2398 47.442 70.477 48.6566L76.8018 81.048C77.039 82.2628 76.2466 83.2474 75.0318 83.2474H24.2272C23.0124 83.2474 21.8354 82.2626 21.5982 81.048L16.3848 54.3482C16.1476 53.1334 16.94 52.1488 18.1548 52.1488H45.8C48.1932 52.1488 49.9468 50.496 50.028 48.1636Z" fill="black"/>
</svg>
