<svg width="24" height="24" viewBox="0 0 24 24" fill="none" xmlns="http://www.w3.org/2000/svg">
<g clip-path="url(#clip0_493_14)">
<path d="M24 12C24 15.1826 22.7357 18.2349 20.4853 20.4853C18.2348 22.7357 15.1826 24 12 24C8.8174 24 5.76515 22.7357 3.51472 20.4853C1.26428 18.2349 0 15.1826 0 12C0 8.81743 1.26428 5.76518 3.51472 3.51475C5.76515 1.26431 8.8174 3.05176e-05 12 3.05176e-05C15.1826 3.05176e-05 18.2348 1.26431 20.4853 3.51475C22.7357 5.76518 24 8.81743 24 12Z" fill="url(#paint0_linear_493_14)"/>
<path d="M22.5391 12C22.5391 14.7952 21.4287 17.4758 19.4522 19.4523C17.4758 21.4288 14.7951 22.5391 11.9999 22.5391C9.20479 22.5391 6.52412 21.4288 4.54765 19.4523C2.57118 17.4758 1.46082 14.7952 1.46082 12C1.46082 9.20485 2.57118 6.52419 4.54765 4.54771C6.52412 2.57124 9.20479 1.46088 11.9999 1.46088C14.7951 1.46088 17.4758 2.57124 19.4522 4.54771C21.4287 6.52419 22.5391 9.20485 22.5391 12Z" fill="url(#paint1_linear_493_14)"/>
<path d="M22.226 12C22.226 14.7121 21.1486 17.3132 19.2309 19.2309C17.3131 21.1487 14.7121 22.2261 11.9999 22.2261C9.28782 22.2261 6.68678 21.1487 4.76901 19.2309C2.85125 17.3132 1.77386 14.7121 1.77386 12C1.77386 9.28787 2.85125 6.68682 4.76901 4.76906C6.68678 2.8513 9.28782 1.77391 11.9999 1.77391C14.7121 1.77391 17.3131 2.8513 19.2309 4.76906C21.1486 6.68682 22.226 9.28787 22.226 12Z" fill="#26CF12"/>
<path d="M19.9826 8.76521C19.3816 11.9488 15.6599 13.0962 11.8956 13.6174C8.1246 14.1395 3.7497 13.7075 2.90117 10.0453C2.05448 6.39108 6.35515 1.77391 12 1.77391C17.6448 1.77391 20.5817 5.59149 19.9826 8.76521Z" fill="url(#paint2_linear_493_14)"/>
</g>
<defs>
<linearGradient id="paint0_linear_493_14" x1="19.3044" y1="21.287" x2="4.38262" y2="3.02612" gradientUnits="userSpaceOnUse">
<stop stop-color="#101010"/>
<stop offset="1" stop-color="#404040"/>
</linearGradient>
<linearGradient id="paint1_linear_493_14" x1="5.467" y1="3.89601" x2="18.3583" y2="20.3789" gradientUnits="userSpaceOnUse">
<stop stop-color="#101010"/>
<stop offset="1" stop-color="#404040"/>
</linearGradient>
<linearGradient id="paint2_linear_493_14" x1="8.97387" y1="2.45217" x2="11.4112" y2="13.3565" gradientUnits="userSpaceOnUse">
<stop stop-color="white"/>
<stop offset="1" stop-color="white" stop-opacity="0"/>
</linearGradient>
<clipPath id="clip0_493_14">
<rect width="24" height="24" fill="white"/>
</clipPath>
</defs>
</svg>
