<svg width="100" height="100" viewBox="0 0 100 100" fill="none" xmlns="http://www.w3.org/2000/svg">
<path d="M100 76.4796H0V76.5296H100V76.4796Z" fill="#EBEBEB"/>
<path d="M89.9802 79.6988H83.3558V79.7488H89.9802V79.6988Z" fill="#EBEBEB"/>
<path d="M66.244 80.2416H64.5054V80.2916H66.244V80.2416Z" fill="#EBEBEB"/>
<path d="M83.1556 77.8416H79.3172V77.8916H83.1556V77.8416Z" fill="#EBEBEB"/>
<path d="M19.1304 78.1776H10.4918V78.2276H19.1304V78.1776Z" fill="#EBEBEB"/>
<path d="M22.1778 78.1776H20.9112V78.2276H22.1778V78.1776Z" fill="#EBEBEB"/>
<path d="M45.0294 79.0222H26.2942V79.0722H45.0294V79.0222Z" fill="#EBEBEB"/>
<path d="M47.4028 67.56H8.78302C8.15362 67.56 7.64142 67.0478 7.64142 66.4184V12.132C7.64142 11.5026 8.15362 10.9904 8.78302 10.9904H47.4028C48.032 10.9904 48.5442 11.5026 48.5442 12.132V66.4184C48.5442 67.0478 48.032 67.56 47.4028 67.56ZM8.78302 11.0406C8.18102 11.0406 7.69142 11.5302 7.69142 12.1322V66.4186C7.69142 67.0206 8.18102 67.5102 8.78302 67.5102H47.4028C48.0046 67.5102 48.4942 67.0206 48.4942 66.4186V12.132C48.4942 11.5302 48.0046 11.0404 47.4028 11.0404L8.78302 11.0406Z" fill="#EBEBEB"/>
<path d="M90.662 67.56H52.0424C51.413 67.56 50.901 67.0478 50.901 66.4184V12.132C50.901 11.5026 51.4132 10.9904 52.0424 10.9904H90.662C91.2916 10.9904 91.8036 11.5026 91.8036 12.132V66.4184C91.8038 67.0478 91.2916 67.56 90.662 67.56ZM52.0424 11.0406C51.4406 11.0406 50.951 11.5302 50.951 12.1322V66.4186C50.951 67.0206 51.4406 67.5102 52.0424 67.5102H90.662C91.264 67.5102 91.7536 67.0206 91.7536 66.4186V12.132C91.7536 11.5302 91.264 11.0404 90.662 11.0404L52.0424 11.0406Z" fill="#EBEBEB"/>
<path d="M45.466 31.764V36.3172L47.8106 36.5382C48.127 38.0644 48.732 39.4834 49.5592 40.744L48.0532 42.563L51.273 45.783L53.0922 44.2768C54.3526 45.1042 55.7718 45.7092 57.298 46.0256L57.5188 48.3702H62.0722L62.2932 46.0254C63.8194 45.7088 65.2388 45.1042 66.499 44.2768L68.3182 45.783L71.5382 42.563L70.0322 40.7438C70.8594 39.4834 71.4642 38.0644 71.7808 36.5382L74.1256 36.3172V31.764L71.7808 31.543C71.4642 30.0166 70.8594 28.5974 70.0322 27.337L71.5382 25.5178L68.3182 22.2978L66.499 23.8036C65.2388 22.9768 63.8194 22.3718 62.2932 22.0552L62.0722 19.7104H57.5188L57.298 22.0552C55.7718 22.3716 54.3526 22.9766 53.0922 23.8036L51.273 22.2978L48.0532 25.5178L49.5592 27.3368C48.732 28.5972 48.127 30.0164 47.8106 31.5428L45.466 31.764ZM59.7956 27.8762C63.2002 27.8762 65.96 30.636 65.96 34.0406C65.96 37.445 63.2002 40.2048 59.7956 40.2048C56.3912 40.2048 53.6312 37.4448 53.6312 34.0406C53.6314 30.636 56.3912 27.8762 59.7956 27.8762Z" fill="#E0E0E0"/>
<path d="M37.773 52.1402L39.08 53.2226L41.3934 50.909L40.3114 49.602C40.9056 48.6964 41.3404 47.6764 41.5676 46.58L43.2522 46.4214V43.1498L41.5676 42.991C41.3402 41.8942 40.9056 40.8748 40.3112 39.9692L41.3932 38.662L39.0798 36.3484L37.7728 37.4304C36.867 36.8364 35.8474 36.4018 34.7506 36.174L34.592 34.4894L31.3202 34.4898L31.1618 36.174C30.065 36.4014 29.0452 36.8364 28.1396 37.4304L26.8326 36.3484L24.5192 38.662L25.6014 39.9692C25.007 40.8744 24.5724 41.8942 24.3448 42.991L22.6606 43.1498V46.4214L24.3448 46.58C24.5724 47.6764 25.0068 48.6962 25.6014 49.602L24.5192 50.909L26.8326 53.2226L28.1396 52.1402C29.0452 52.7344 30.0648 53.1692 31.1618 53.3968L31.3202 55.0812H34.592L34.7506 53.3964C35.8476 53.1692 36.8672 52.7344 37.773 52.1402ZM28.5274 44.7854C28.5274 42.3394 30.5102 40.3566 32.9564 40.3566C35.4022 40.3566 37.3854 42.3394 37.3854 44.7854C37.3854 47.2314 35.4024 49.2144 32.9564 49.2144C30.5102 49.2144 28.5274 47.2314 28.5274 44.7854Z" fill="#E0E0E0"/>
<path d="M52.3132 74.3014C53.6188 74.0308 54.8328 73.513 55.9112 72.8056L57.4672 74.0938L60.2216 71.3396L58.9332 69.783C59.6408 68.7052 60.1584 67.4912 60.429 66.1854L62.4346 65.9966V62.1014L60.429 61.9126C60.1584 60.6068 59.6406 59.393 58.9332 58.3148L60.2216 56.7586L57.4672 54.0046L55.9112 55.2926C54.8328 54.5852 53.619 54.0676 52.3132 53.7968L52.1244 51.7912H48.229L48.0402 53.7968C46.7346 54.0676 45.5208 54.5852 44.4426 55.2926L42.8864 54.0046L40.132 56.7586L41.42 58.3148C40.7126 59.393 40.1952 60.6068 39.9244 61.9126L37.9188 62.1014V65.9966L39.9244 66.1854C40.1952 67.4912 40.7126 68.7052 41.42 69.7834L40.132 71.3396L42.8864 74.0938L44.4426 72.8056C45.5208 73.513 46.7346 74.0308 48.0402 74.3014L48.229 76.307H52.1244L52.3132 74.3014ZM44.9038 64.0488C44.9038 61.1368 47.2646 58.7758 50.1768 58.7758C53.0892 58.7758 55.45 61.1368 55.45 64.0488C55.45 66.9612 53.0892 69.3218 50.1768 69.3218C47.2646 69.3218 44.9038 66.9612 44.9038 64.0488Z" fill="#E0E0E0"/>
<path d="M80.3104 42.245H84.6118C85.0274 42.245 85.287 41.7952 85.0794 41.4352L82.9288 37.71C82.721 37.3502 82.2016 37.3502 81.9938 37.71L79.8432 41.4352C79.6352 41.7952 79.895 42.245 80.3104 42.245ZM82.7506 38.7266L82.6554 40.5824H82.263L82.1638 38.7266H82.7506ZM82.144 41.2206C82.144 41.0502 82.2748 40.9152 82.4572 40.9152C82.6436 40.9152 82.7784 41.0502 82.7784 41.2206C82.7784 41.391 82.6436 41.53 82.4572 41.53C82.2748 41.53 82.144 41.391 82.144 41.2206Z" fill="#F0F0F0"/>
<path d="M17.3896 25.4456H21.691C22.1066 25.4456 22.3662 24.9958 22.1586 24.6358L20.008 20.9106C19.8002 20.5508 19.2808 20.5508 19.073 20.9106L16.9222 24.636C16.7144 24.9958 16.974 25.4456 17.3896 25.4456ZM19.8296 21.9272L19.7344 23.783H19.342L19.2428 21.9272H19.8296ZM19.2232 24.4212C19.2232 24.2508 19.354 24.1158 19.5364 24.1158C19.7228 24.1158 19.8576 24.2508 19.8576 24.4212C19.8576 24.5916 19.7228 24.7304 19.5364 24.7304C19.3538 24.7304 19.2232 24.5916 19.2232 24.4212Z" fill="#F0F0F0"/>
<path d="M28.9294 71.2772H33.2308C33.6464 71.2772 33.906 70.8274 33.6984 70.4674L31.5478 66.7422C31.34 66.3824 30.8206 66.3824 30.6128 66.7422L28.4622 70.4674C28.2542 70.8274 28.5138 71.2772 28.9294 71.2772ZM31.3694 67.7586L31.2742 69.6144H30.8818L30.7826 67.7586H31.3694ZM30.7628 70.2526C30.7628 70.0822 30.8936 69.9472 31.076 69.9472C31.2624 69.9472 31.3972 70.0822 31.3972 70.2526C31.3972 70.423 31.2624 70.562 31.076 70.562C30.8936 70.562 30.7628 70.4232 30.7628 70.2526Z" fill="#F0F0F0"/>
<path d="M69.2016 65.8872H73.503C73.9186 65.8872 74.1782 65.4374 73.9706 65.0774L71.82 61.3522C71.6122 60.9924 71.0928 60.9924 70.885 61.3522L68.7344 65.0774C68.5264 65.4374 68.7862 65.8872 69.2016 65.8872ZM71.6418 62.3688L71.5466 64.2246H71.1542L71.055 62.3688H71.6418ZM71.0352 64.8628C71.0352 64.6924 71.166 64.5574 71.3482 64.5574C71.5346 64.5574 71.6694 64.6924 71.6694 64.8628C71.6694 65.0332 71.5346 65.1722 71.3482 65.1722C71.1658 65.172 71.0352 65.0332 71.0352 64.8628Z" fill="#F0F0F0"/>
<path d="M72.2946 18.7588H74.6766C74.9068 18.7588 75.0506 18.5096 74.9356 18.3104L73.7446 16.2476C73.6294 16.0484 73.3418 16.0484 73.2268 16.2476L72.0358 18.3104C71.9208 18.5096 72.0646 18.7588 72.2946 18.7588ZM73.6458 16.8104L73.5932 17.838H73.3758L73.3208 16.8104H73.6458ZM73.31 18.1914C73.31 18.097 73.3824 18.0222 73.4834 18.0222C73.5866 18.0222 73.6612 18.097 73.6612 18.1914C73.6612 18.2858 73.5866 18.3626 73.4834 18.3626C73.3824 18.3628 73.31 18.2858 73.31 18.1914Z" fill="#F0F0F0"/>
<path d="M12.889 50.3004H15.271C15.5012 50.3004 15.645 50.0512 15.53 49.852L14.339 47.7892C14.2238 47.59 13.9362 47.59 13.8212 47.7892L12.6302 49.852C12.515 50.0514 12.6588 50.3004 12.889 50.3004ZM14.2402 48.352L14.1874 49.3796H13.97L13.915 48.352H14.2402ZM13.9044 49.7332C13.9044 49.6388 13.9768 49.564 14.0778 49.564C14.181 49.564 14.2556 49.6388 14.2556 49.7332C14.2556 49.8276 14.181 49.9044 14.0778 49.9044C13.9768 49.9044 13.9044 49.8276 13.9044 49.7332Z" fill="#F0F0F0"/>
<path d="M58.4958 35.0572H60.8778C61.108 35.0572 61.2518 34.808 61.1368 34.6088L59.9458 32.546C59.8306 32.3466 59.543 32.3466 59.428 32.546L58.237 34.6088C58.1218 34.808 58.2656 35.0572 58.4958 35.0572ZM59.847 33.1088L59.7942 34.1364H59.5768L59.5218 33.1088H59.847ZM59.511 34.4898C59.511 34.3954 59.5834 34.3206 59.6844 34.3206C59.7876 34.3206 59.8622 34.3954 59.8622 34.4898C59.8622 34.5842 59.7876 34.661 59.6844 34.661C59.5834 34.661 59.511 34.5842 59.511 34.4898Z" fill="#F0F0F0"/>
<path d="M39.0104 17.6658H32.823V21.7554H39.0104V17.6658Z" fill="#E0E0E0"/>
<path d="M39.0238 17.6658H32.823V18.337H39.0238V17.6658Z" fill="#F0F0F0"/>
<path d="M25.4878 32.8322H19.3004V36.9218H25.4878V32.8322Z" fill="#E0E0E0"/>
<path d="M25.5012 32.8322H19.3004V33.5034H25.5012V32.8322Z" fill="#F0F0F0"/>
<path d="M24.6314 61.9432H18.444V66.0328H24.6314V61.9432Z" fill="#E0E0E0"/>
<path d="M24.6448 61.9432H18.444V62.6144H24.6448V61.9432Z" fill="#F0F0F0"/>
<path d="M72.2756 51.4034H66.0882V55.493H72.2756V51.4034Z" fill="#E0E0E0"/>
<path d="M72.289 51.4034H66.0882V52.0746H72.289V51.4034Z" fill="#F0F0F0"/>
<path d="M85.8375 56.7098H79.6501V60.7994H85.8375V56.7098Z" fill="#E0E0E0"/>
<path d="M85.8509 56.7098H79.6501V57.381H85.8509V56.7098Z" fill="#F0F0F0"/>
<path d="M83.5618 26.1528H77.3744V30.2424H83.5618V26.1528Z" fill="#E0E0E0"/>
<path d="M83.5752 26.1528H77.3744V26.824H83.5752V26.1528Z" fill="#F0F0F0"/>
<path d="M50 85.5122C71.4164 85.5122 88.7778 84.4983 88.7778 83.2476C88.7778 81.9969 71.4164 80.983 50 80.983C28.5836 80.983 11.2222 81.9969 11.2222 83.2476C11.2222 84.4983 28.5836 85.5122 50 85.5122Z" fill="#F5F5F5"/>
<path d="M42.697 23.8838H36.9514C35.9742 23.8838 35.1822 24.676 35.1822 25.653V30.6534C35.1822 31.6304 35.9744 32.4226 36.9514 32.4226H38.0286L37.623 34.0014L39.2186 32.4226H42.6972C43.6742 32.4226 44.4664 31.6306 44.4664 30.6534V25.653C44.4662 24.676 43.674 23.8838 42.697 23.8838Z" fill="#407BFF"/>
<path opacity="0.7" d="M42.697 23.8838H36.9514C35.9742 23.8838 35.1822 24.676 35.1822 25.653V30.6534C35.1822 31.6304 35.9744 32.4226 36.9514 32.4226H38.0286L37.623 34.0014L39.2186 32.4226H42.6972C43.6742 32.4226 44.4664 31.6306 44.4664 30.6534V25.653C44.4662 24.676 43.674 23.8838 42.697 23.8838Z" fill="white"/>
<path d="M39.8242 30.957C41.3482 30.957 42.5836 29.7216 42.5836 28.1976C42.5836 26.6736 41.3482 25.4382 39.8242 25.4382C38.3002 25.4382 37.0648 26.6736 37.0648 28.1976C37.0648 29.7216 38.3002 30.957 39.8242 30.957Z" stroke="#407BFF" stroke-width="2" stroke-miterlimit="10"/>
<path d="M38.4992 28.1976L39.3702 29.1428L41.149 27.2578" stroke="#407BFF" stroke-width="2" stroke-miterlimit="10" stroke-linecap="round" stroke-linejoin="round"/>
<path d="M32.6608 82.2554L34.0524 82.232L34.3978 79.0164L33.006 79.0398L32.6608 82.2554Z" fill="#E4897B"/>
<path opacity="0.2" d="M34.3974 79.0172L34.2196 80.6746L32.8274 80.6982L33.005 79.0406L34.3974 79.0172Z" fill="black"/>
<path d="M35.9234 67.41C35.9272 71.816 34.6868 80.1888 34.6868 80.1888L32.3582 80.5502C32.3582 80.5502 32.1318 72.7388 32.0442 68.4144C32.0308 67.777 30.256 64.7028 28.4276 61.6988C27.486 60.1502 26.529 58.6188 25.7908 57.4488C24.9994 56.195 24.459 55.356 24.459 55.356L29.9856 53.288C29.9856 53.288 35.9196 63.1732 35.9234 67.41Z" fill="#407BFF"/>
<path d="M35.0116 80.3242L32.2084 80.5026L32.1592 79.6004L35.2378 79.3576L35.0116 80.3242Z" fill="#263238"/>
<path d="M34.1204 82.0374C34.119 82.0236 34.1266 82.0102 34.1392 82.0042C34.2038 81.9738 34.774 81.708 34.9398 81.8088C34.9716 81.828 34.9892 81.8588 34.9906 81.8978C34.9928 81.9634 34.9698 82.0164 34.9222 82.0554C34.7642 82.185 34.3676 82.1176 34.1454 82.0658C34.144 82.0654 34.1426 82.065 34.1412 82.0644C34.1298 82.0602 34.1216 82.0498 34.1204 82.0374ZM34.2574 82.0228C34.5624 82.0836 34.792 82.0776 34.8806 82.005C34.9118 81.9794 34.9262 81.9454 34.9246 81.9008C34.924 81.8836 34.9182 81.873 34.9052 81.865C34.9016 81.8628 34.8978 81.861 34.8934 81.8594C34.7902 81.8198 34.4822 81.9252 34.2574 82.0228Z" fill="#407BFF"/>
<path d="M34.133 82.06C34.1238 82.0528 34.119 82.0414 34.1206 82.0298C34.1228 82.014 34.1756 81.6422 34.3586 81.5032C34.4144 81.4608 34.4768 81.444 34.5436 81.4528C34.6338 81.4652 34.658 81.5114 34.6626 81.5484C34.6816 81.7058 34.3366 81.9944 34.1656 82.064C34.1576 82.0672 34.149 82.0672 34.1412 82.0642C34.1382 82.0634 34.1354 82.062 34.133 82.06ZM34.5342 81.518C34.4846 81.5114 34.4402 81.5236 34.3982 81.5554C34.2782 81.6466 34.2192 81.868 34.197 81.9764C34.3726 81.8794 34.6084 81.6514 34.597 81.557C34.5962 81.5512 34.5944 81.5362 34.5676 81.526C34.5592 81.5226 34.5484 81.5198 34.5342 81.518Z" fill="#407BFF"/>
<path d="M34.0122 81.8688L32.493 81.8198C32.4362 81.818 32.3852 81.8558 32.3706 81.9106L32.045 83.1326C32.0112 83.2592 32.1036 83.3834 32.235 83.3854C32.7834 83.3938 33.5768 83.3874 34.2656 83.4096C35.071 83.4356 35.5834 83.3988 36.528 83.4292C37.0992 83.4476 37.2814 82.878 37.0444 82.8182C35.9658 82.5462 35.2596 82.595 34.343 81.9876C34.2432 81.9214 34.1322 81.8726 34.0122 81.8688Z" fill="#263238"/>
<path opacity="0.2" d="M28.4278 61.6988C27.4862 60.1502 26.5292 58.6188 25.791 57.4488C26.2552 56.84 26.8088 56.4404 26.8088 56.4404C26.8088 56.4404 28.422 59.256 28.4278 61.6988Z" fill="black"/>
<path d="M16.9604 82.0876L18.3038 82.4528L19.531 79.4606L18.1878 79.0956L16.9604 82.0876Z" fill="#E4897B"/>
<path opacity="0.2" d="M19.5304 79.4614L18.898 81.0038L17.5544 80.6384L18.1868 79.096L19.5304 79.4614Z" fill="black"/>
<path d="M30.1262 52.0932L30.0134 54.027L26.6614 56.7024C26.6614 56.7024 26.4316 65.7022 25.4782 67.6736C24.5248 69.645 19.937 79.974 19.937 79.974L17.4282 79.2064C17.4282 79.2064 21.4142 67.0656 21.8156 66.3484C22.217 65.6312 20.106 55.1616 22.934 50.212L30.1262 52.0932Z" fill="#407BFF"/>
<path d="M34.2602 43.4644C34.4022 44.3656 34.5208 45.2654 34.625 46.171C34.7258 47.0776 34.8178 47.9818 34.8792 48.9072L34.9162 49.5072C34.9304 49.6454 34.9662 49.7902 35.022 49.939C35.1344 50.2356 35.3296 50.5478 35.5796 50.8432C35.8266 51.1418 36.1256 51.4246 36.4464 51.6938C36.6086 51.826 36.7728 51.9612 36.9448 52.0872C37.1136 52.2108 37.3012 52.3378 37.4604 52.4456L37.0514 53.4048C36.796 53.329 36.5806 53.2474 36.3526 53.152C36.1288 53.057 35.905 52.9572 35.689 52.8394C35.2544 52.6082 34.833 52.333 34.4378 51.9908C34.0452 51.649 33.6716 51.2372 33.394 50.7136C33.2554 50.4536 33.1372 50.1674 33.0712 49.859C33.051 49.7834 33.0418 49.704 33.0278 49.6262L32.9994 49.4344L32.9532 49.1086L32.5482 46.4448C32.4148 45.5524 32.2878 44.6558 32.1756 43.7614L34.2602 43.4644Z" fill="#DC897C"/>
<path d="M31.3508 40.9962C30.5716 42.076 31.9076 46.2046 31.9076 46.2046L34.9928 45.4532C34.9928 45.4532 34.8446 43.5294 34.2916 41.9116C33.724 40.2508 32.2058 39.8112 31.3508 40.9962Z" fill="#407BFF"/>
<path opacity="0.7" d="M31.3508 40.9962C30.5716 42.076 31.9076 46.2046 31.9076 46.2046L34.9928 45.4532C34.9928 45.4532 34.8446 43.5294 34.2916 41.9116C33.724 40.2508 32.2058 39.8112 31.3508 40.9962Z" fill="white"/>
<path opacity="0.2" d="M32.3992 43.2042C32.937 43.7162 33.2452 45.0354 33.05 45.9264L31.9072 46.2046C31.9072 46.2046 31.3936 44.6188 31.1892 43.156C31.489 42.9164 31.7832 42.6178 32.3992 43.2042Z" fill="black"/>
<path d="M25.6808 38.4592C25.5816 40.0452 25.3268 41.6086 25.0136 43.0554C24.7838 44.1136 24.5206 45.1088 24.2604 46.004C23.6512 48.1024 23.058 49.6588 22.934 50.212C23.988 50.4882 27.96 51.5276 30.1262 52.0934C33.6826 44.9558 33.196 40.496 33.196 40.496C33.196 40.496 32.4724 40.0792 31.5872 39.722C31.471 39.6742 31.3512 39.6292 31.2292 39.5854C30.4396 39.3004 29.1018 38.9818 28.1714 38.7854C27.9758 38.7442 27.7762 38.7076 27.5812 38.675C26.5878 38.51 25.6808 38.4592 25.6808 38.4592Z" fill="#407BFF"/>
<path opacity="0.7" d="M25.6808 38.4592C25.5816 40.0452 25.3268 41.6086 25.0136 43.0554C24.7838 44.1136 24.5206 45.1088 24.2604 46.004C23.6512 48.1024 23.058 49.6588 22.934 50.212C23.988 50.4882 27.96 51.5276 30.1262 52.0934C33.6826 44.9558 33.196 40.496 33.196 40.496C33.196 40.496 32.4724 40.0792 31.5872 39.722C31.471 39.6742 31.3512 39.6292 31.2292 39.5854C30.4396 39.3004 29.1018 38.9818 28.1714 38.7854C27.9758 38.7442 27.7762 38.7076 27.5812 38.675C26.5878 38.51 25.6808 38.4592 25.6808 38.4592Z" fill="white"/>
<path d="M30.7588 40.0554C30.388 39.397 30.7976 38.8288 31.2926 38.3542L30.5212 35.9374C30.1502 36.9012 29.3288 38.5802 28.3622 38.7806C28.4542 39.2022 28.6332 39.6448 28.9584 40.0554H30.7588Z" fill="#E4897B"/>
<path opacity="0.2" d="M30.8356 36.9232L31.2926 38.353C31.1528 38.4862 31.0206 38.6272 30.9112 38.776C30.5756 38.496 30.3216 37.7822 30.5236 37.3748C30.6244 37.1716 30.7482 36.9928 30.8356 36.9232Z" fill="black"/>
<path d="M35.5 36.0576C35.4624 36.242 33.825 35.8502 33.5704 35.4944C33.3158 35.1386 34.1438 34.9424 34.6596 35.2092C35.1754 35.476 35.5 36.0576 35.5 36.0576Z" fill="#407BFF"/>
<path opacity="0.3" d="M35.5 36.0576C35.4624 36.242 33.825 35.8502 33.5704 35.4944C33.3158 35.1386 34.1438 34.9424 34.6596 35.2092C35.1754 35.476 35.5 36.0576 35.5 36.0576Z" fill="black"/>
<path d="M34.7354 35.1304C34.7296 35.6908 34.3014 36.7066 33.702 36.1354C33.1026 35.5644 34.7454 34.167 34.7354 35.1304Z" fill="#263238"/>
<path d="M33.844 37.4938C33.7394 37.6708 33.629 37.8324 33.5148 37.9752C32.6892 39.014 31.0416 38.9626 30.4272 37.7964C30.3854 37.7202 30.3492 37.6404 30.3188 37.5548C29.984 36.6282 30.3454 35.9034 30.8496 34.6232C31.3538 33.3428 33.0222 32.9586 34.002 33.9972C34.8562 34.9008 34.47 36.4438 33.844 37.4938Z" fill="#E4897B"/>
<path d="M31.7808 32.405C31.7808 32.405 31.4218 32.4874 31.0218 32.8554C30.2784 33.5394 29.7368 34.5648 30.6786 35.598C31.3606 35.3414 31.6968 34.3988 31.7808 34.1282V32.405Z" fill="#263238"/>
<path d="M29.8842 35.4368C29.8342 35.8038 29.9598 36.1586 30.1496 36.3966C30.4352 36.7544 30.849 36.564 30.9968 36.1552C31.1298 35.7872 31.1414 35.1578 30.7456 34.9474C30.3556 34.74 29.9414 35.0172 29.8842 35.4368Z" fill="#E4897B"/>
<path d="M32.5878 35.835C32.5404 35.9364 32.5562 36.0432 32.623 36.0736C32.6898 36.104 32.7822 36.0462 32.8294 35.9448C32.8768 35.8434 32.861 35.7366 32.7942 35.7062C32.7276 35.676 32.6352 35.7336 32.5878 35.835Z" fill="#263238"/>
<path d="M33.7416 36.3592C33.6944 36.4606 33.71 36.5674 33.7768 36.5978C33.8436 36.6282 33.936 36.5704 33.9832 36.469C34.0306 36.3676 34.0148 36.2608 33.948 36.2304C33.8814 36.2002 33.789 36.2578 33.7416 36.3592Z" fill="#263238"/>
<path d="M33.3512 36.243C33.3512 36.243 33.3262 36.9146 33.4566 37.3052C33.2046 37.3828 32.9334 37.1664 32.9334 37.1664L33.3512 36.243Z" fill="#DE5753"/>
<path d="M32.2056 37.3062C32.2448 37.3308 32.2876 37.354 32.3344 37.3752C32.351 37.3828 32.3706 37.3754 32.3782 37.359C32.386 37.3424 32.3784 37.323 32.3622 37.3156C31.914 37.1114 31.8502 36.706 31.8494 36.7018C31.8468 36.684 31.83 36.6716 31.812 36.6742C31.794 36.677 31.7814 36.6936 31.784 36.7116C31.7864 36.728 31.8416 37.0778 32.2056 37.3062Z" fill="#263238"/>
<path d="M32.4048 35.303C32.4242 35.3152 32.4496 35.317 32.4714 35.3052C32.7316 35.1666 32.946 35.2796 32.9482 35.2808C32.9802 35.2982 33.0204 35.2864 33.038 35.2546C33.0556 35.2228 33.0438 35.183 33.012 35.1658C33.0008 35.1596 32.732 35.018 32.4092 35.19C32.377 35.2072 32.3648 35.2468 32.3818 35.2788C32.3876 35.289 32.3956 35.2972 32.4048 35.303Z" fill="#263238"/>
<path d="M34.4226 36.1908C34.4332 36.1974 34.4458 36.2012 34.4594 36.2008C34.4958 36.2 34.525 36.17 34.5242 36.1338C34.5176 35.7708 34.2606 35.6114 34.2498 35.6026C34.2188 35.5836 34.178 35.593 34.1588 35.6238C34.1396 35.6544 34.1488 35.6946 34.1792 35.7138C34.1902 35.72 34.3866 35.8456 34.392 36.1368C34.3926 36.1596 34.4046 36.1794 34.4226 36.1908Z" fill="#263238"/>
<path d="M34.685 35.4944C33.7642 34.781 32.5904 34.4556 31.6714 34.3072C30.8134 34.1684 30.178 34.1854 30.178 34.1854C30.218 33.6698 30.878 32.4904 31.2928 32.4046C31.8444 32.2904 33.1572 32.3894 33.3798 32.473C33.863 32.6538 34.8256 33.352 34.898 33.645C35.0482 34.2596 34.685 35.4944 34.685 35.4944Z" fill="#407BFF"/>
<path d="M31.6708 34.307C31.6708 34.307 32.891 34.0344 33.9572 34.4484C35.0234 34.8624 35.5 36.0576 35.5 36.0576C35.5 36.0576 35.4052 35.8122 34.5242 35.4942C33.547 35.1416 32.7178 35.1364 31.6708 34.307Z" fill="#407BFF"/>
<path opacity="0.1" d="M33.3798 32.4734C33.3798 32.4734 32.2896 32.9434 32.2136 33.0194C32.1376 33.0936 31.6714 34.3074 31.6714 34.3074C30.8134 34.1686 30.178 34.1856 30.178 34.1856C30.218 33.67 30.878 32.4906 31.2928 32.4048C31.8446 32.2906 33.1572 32.3896 33.3798 32.4734Z" fill="black"/>
<path opacity="0.1" d="M31.6708 34.307C31.6708 34.307 32.891 34.0344 33.9572 34.4484C35.0234 34.8624 35.5 36.0576 35.5 36.0576C35.5 36.0576 35.4052 35.8122 34.5242 35.4942C33.547 35.1416 32.7178 35.1364 31.6708 34.307Z" fill="black"/>
<path opacity="0.3" d="M33.844 37.4938C33.7394 37.6708 33.629 37.8324 33.5148 37.9752C32.6892 39.014 31.0416 38.9626 30.4272 37.7964C30.3702 37.1096 30.608 35.9872 31.0798 35.3138L31.2928 35.0854C31.2928 35.0854 31.0284 36.1032 31.1064 36.3048C31.1844 36.5046 31.7494 36.2478 32.012 36.4132C32.2764 36.5806 32.3754 36.923 32.3754 36.923L32.2136 37.0258C32.2136 37.0258 31.8958 36.5178 31.7798 36.5046C31.6618 36.4932 31.1102 36.9954 31.1596 37.1704C31.211 37.3454 31.1254 37.433 31.2928 37.509C31.4602 37.585 31.8616 37.3226 31.8616 37.3226L32.0822 37.5224C32.0822 37.5224 31.7302 37.8972 31.7836 37.9732C31.8368 38.0474 32.1888 38.1862 32.44 38.0854C32.6912 37.9846 32.6816 37.4348 32.7292 37.3778C32.7786 37.3208 32.343 37.1324 32.343 37.1324L32.4762 36.9232C32.4762 36.9232 33.026 37.2732 33.047 37.3778C33.066 37.4844 32.9576 37.7982 33.0508 37.7982C33.1192 37.7982 33.5472 37.6974 33.844 37.4938Z" fill="black"/>
<path d="M34.3308 34.2358L34.3004 34.1188L34.3864 34.034L34.5776 34.0866C34.5602 34.008 34.501 33.9412 34.4178 33.9184C34.3388 33.8966 34.2582 33.9202 34.203 33.973C34.1948 33.9684 34.1862 33.9648 34.1768 33.9622L33.648 33.8122C33.6386 33.8096 33.6292 33.8084 33.6198 33.8082C33.5994 33.7346 33.5422 33.6732 33.463 33.6516C33.3798 33.6288 33.295 33.6558 33.2398 33.7146L33.431 33.7672L33.4614 33.8842L33.3754 33.969L33.1842 33.9164C33.2016 33.995 33.2608 34.0618 33.344 34.0846C33.423 34.1064 33.5036 34.0828 33.5588 34.03C33.567 34.0346 33.5758 34.0382 33.585 34.0408L34.1138 34.1908C34.1232 34.1934 34.1326 34.1946 34.142 34.195C34.1624 34.2686 34.2196 34.33 34.2986 34.3516C34.3818 34.3744 34.4668 34.3474 34.5218 34.2886L34.3308 34.2358Z" fill="white"/>
<path d="M37.2118 52.3288L38.5608 52.7584L37.4856 53.9028C37.4856 53.9028 36.3052 53.4468 36.5656 52.8486L37.2118 52.3288Z" fill="#E4897B"/>
<path d="M39.2424 54.246L38.8378 54.9756L37.4856 53.9028L38.5608 52.7584L39.2424 54.246Z" fill="#E4897B"/>
<path d="M25.5914 41.3408C24.974 42.048 24.3434 42.78 23.7454 43.5072C23.443 43.8698 23.1536 44.2394 22.8754 44.6048C22.6016 44.9664 22.3374 45.3504 22.1594 45.6742C22.1168 45.7524 22.0824 45.8268 22.0644 45.8708C22.0568 45.8892 22.0508 45.9062 22.052 45.8884C22.0512 45.8866 22.0512 45.8814 22.0518 45.8704L22.0476 45.7796C22.0382 45.6882 22.0144 45.5946 21.972 45.506C21.9486 45.4606 21.933 45.4302 21.9078 45.394C21.8846 45.36 21.8542 45.3258 21.8374 45.3066C21.817 45.2842 21.7948 45.263 21.7714 45.244C21.7482 45.2254 21.7386 45.2172 21.7204 45.2046C21.682 45.1794 21.6618 45.1686 21.6424 45.159C21.6164 45.1476 21.6104 45.145 21.5978 45.1408C21.5828 45.1366 21.581 45.136 21.5764 45.1352C21.5608 45.1332 21.5766 45.142 21.6058 45.148C21.6608 45.1628 21.755 45.1758 21.8512 45.184C22.048 45.2006 22.2718 45.2036 22.4982 45.1998C22.7256 45.1988 22.9586 45.192 23.1934 45.181C24.1332 45.1374 25.1028 45.0656 26.064 45.0084L26.2716 46.0304C25.3256 46.3482 24.378 46.606 23.3886 46.7998C22.8894 46.8942 22.3966 46.9786 21.824 47.001C21.6772 47.0048 21.5282 47.0076 21.3424 46.9876C21.2514 46.9776 21.1474 46.9618 21.016 46.9244C20.9824 46.9144 20.9512 46.9056 20.9086 46.8888C20.868 46.873 20.8332 46.8602 20.7808 46.8334C20.7342 46.81 20.6872 46.785 20.6248 46.741C20.5946 46.7192 20.5714 46.7036 20.5374 46.6744C20.5032 46.6446 20.4702 46.613 20.439 46.5798C20.4104 46.5508 20.3726 46.5032 20.3408 46.4566C20.3082 46.4074 20.2808 46.3658 20.2536 46.3056C20.1992 46.189 20.1658 46.0666 20.1554 45.9444C20.1524 45.9136 20.1506 45.8828 20.15 45.8522L20.1502 45.8216L20.1518 45.7626C20.153 45.7212 20.1562 45.686 20.16 45.654C20.1748 45.5154 20.2002 45.4142 20.2262 45.3162C20.2796 45.1278 20.3402 44.9778 20.4018 44.8368C20.649 44.2856 20.9312 43.8606 21.2152 43.4276C21.4998 43.0004 21.8018 42.5984 22.1048 42.2006C22.7196 41.4088 23.3518 40.6616 24.0344 39.9238L25.5914 41.3408Z" fill="#DC897C"/>
<path d="M25.2554 38.476C23.9402 38.6846 21.8764 42.0782 21.8764 42.0782L24.7322 43.934C24.7322 43.934 25.8748 42.537 26.6662 41.0082C27.5286 39.343 26.8486 38.2234 25.2554 38.476Z" fill="#407BFF"/>
<path opacity="0.7" d="M25.2554 38.476C23.9402 38.6846 21.8764 42.0782 21.8764 42.0782L24.7322 43.934C24.7322 43.934 25.8748 42.537 26.6662 41.0082C27.5286 39.343 26.8486 38.2234 25.2554 38.476Z" fill="white"/>
<path d="M28.1716 38.7852L28.877 38.2742L30.189 40.0304L30.6938 39.1524L31.2296 39.5854C31.2296 39.5854 31.7004 40.2622 31.2296 41.1874L30.1782 40.327L29.047 41.0514C29.047 41.0514 27.8426 39.6472 28.1716 38.7852Z" fill="#407BFF"/>
<path d="M26.5804 36.1848C27.82 37.7606 27.5478 40.0398 25.972 41.2794C24.3976 42.518 22.1182 42.2458 20.8788 40.67C20.0174 39.575 19.8868 38.1398 20.4168 36.9508L22.3986 39.4702L24.33 39.192L25.0564 37.3794L23.0746 34.86C24.355 34.625 25.7192 35.0898 26.5804 36.1848Z" fill="#407BFF"/>
<path d="M40.5904 65.7282C39.3508 64.1524 39.623 61.8732 41.1988 60.6336C42.7732 59.395 45.0526 59.6672 46.292 61.243C47.1534 62.338 47.284 63.7732 46.754 64.9622L44.7722 62.4428L42.8408 62.721L42.1144 64.5336L44.0962 67.053C42.8158 67.288 41.4516 66.8232 40.5904 65.7282Z" fill="#407BFF"/>
<g opacity="0.2">
<path d="M26.5804 36.1848C27.82 37.7606 27.5478 40.0398 25.972 41.2794C24.3976 42.518 22.1182 42.2458 20.8788 40.67C20.0174 39.575 19.8868 38.1398 20.4168 36.9508L22.3986 39.4702L24.33 39.192L25.0564 37.3794L23.0746 34.86C24.355 34.625 25.7192 35.0898 26.5804 36.1848Z" fill="white"/>
<path d="M40.5904 65.7282C39.3508 64.1524 39.623 61.8732 41.1988 60.6336C42.7732 59.395 45.0526 59.6672 46.292 61.243C47.1534 62.338 47.284 63.7732 46.754 64.9622L44.7722 62.4428L42.8408 62.721L42.1144 64.5336L44.0962 67.053C42.8158 67.288 41.4516 66.8232 40.5904 65.7282Z" fill="white"/>
</g>
<path d="M42.4184 62.1854C41.5876 62.839 40.3842 62.6952 39.7306 61.8644L24.4316 42.4156C23.778 41.5848 23.9218 40.3814 24.7526 39.7278C25.5834 39.0742 26.7868 39.218 27.4404 40.0488L42.7394 59.4976C43.393 60.3284 43.2492 61.5318 42.4184 62.1854Z" fill="#407BFF"/>
<path opacity="0.2" d="M42.4184 62.1854C41.5876 62.839 40.3842 62.6952 39.7306 61.8644L24.4316 42.4156C23.778 41.5848 23.9218 40.3814 24.7526 39.7278C25.5834 39.0742 26.7868 39.218 27.4404 40.0488L42.7394 59.4976C43.393 60.3284 43.2492 61.5318 42.4184 62.1854Z" fill="white"/>
<path opacity="0.2" d="M41.5222 61.0462C41.0954 61.382 40.4772 61.3082 40.1414 60.8814L25.4838 42.2478C25.148 41.821 25.2218 41.2028 25.6486 40.867C26.0754 40.5312 26.6936 40.605 27.0294 41.0318L41.687 59.6654C42.0228 60.0922 41.949 60.7104 41.5222 61.0462Z" fill="black"/>
<path d="M25.762 45.2622L26.809 44.3202L27.3276 46.0252C27.3276 46.0252 26.2598 46.627 25.8802 46.0908L25.762 45.2622Z" fill="#E4897B"/>
<path d="M27.9606 44.2392L28.324 45.6686L27.3276 46.0252L26.809 44.3202L27.9606 44.2392Z" fill="#E4897B"/>
<path d="M19.7312 80.6898L17.0838 79.7516L17.3934 78.9026L20.3194 79.8902L19.7312 80.6898Z" fill="#263238"/>
<path d="M18.5104 82.0374C18.509 82.0236 18.5166 82.0102 18.5294 82.0042C18.594 81.9738 19.1642 81.708 19.33 81.8088C19.3618 81.828 19.3794 81.8588 19.3808 81.8978C19.383 81.9634 19.36 82.0164 19.3124 82.0554C19.1544 82.185 18.7578 82.1176 18.5356 82.0658C18.5342 82.0654 18.5328 82.065 18.5314 82.0644C18.5198 82.0602 18.5118 82.0498 18.5104 82.0374ZM18.6474 82.0228C18.9524 82.0836 19.182 82.0776 19.2708 82.005C19.302 81.9794 19.3164 81.9454 19.3148 81.9008C19.3142 81.8836 19.3084 81.873 19.2954 81.865C19.2918 81.8628 19.288 81.861 19.2836 81.8594C19.1802 81.8198 18.8724 81.9252 18.6474 82.0228Z" fill="#407BFF"/>
<path d="M18.523 82.06C18.5138 82.0528 18.509 82.0414 18.5106 82.0298C18.5128 82.014 18.5656 81.6422 18.7486 81.5032C18.8044 81.4608 18.8668 81.444 18.9336 81.4528C19.0238 81.4652 19.048 81.5114 19.0526 81.5484C19.0716 81.7058 18.7266 81.9944 18.5556 82.064C18.5476 82.0672 18.539 82.0672 18.5312 82.0642C18.5284 82.0634 18.5256 82.062 18.523 82.06ZM18.9244 81.518C18.8748 81.5114 18.8302 81.5236 18.7884 81.5554C18.6684 81.6466 18.6096 81.868 18.5872 81.9764C18.7628 81.8794 18.9986 81.6514 18.9872 81.557C18.9864 81.5512 18.9848 81.5362 18.9578 81.526C18.9492 81.5226 18.9384 81.5198 18.9244 81.518Z" fill="#407BFF"/>
<path d="M18.4022 81.8688L16.8828 81.8198C16.826 81.818 16.775 81.8558 16.7604 81.9106L16.4348 83.1326C16.401 83.2592 16.4934 83.3834 16.6248 83.3854C17.1732 83.3938 17.9666 83.3874 18.6554 83.4096C19.4608 83.4356 19.9732 83.3988 20.9178 83.4292C21.489 83.4476 21.6712 82.878 21.4342 82.8182C20.3556 82.5462 19.6494 82.595 18.7328 81.9876C18.6332 81.9214 18.5222 81.8726 18.4022 81.8688Z" fill="#263238"/>
<path d="M22.6938 50.3106L24.6646 50.8416L24.4878 51.5644L22.4008 51.0622L22.6938 50.3106Z" fill="#263238"/>
<path d="M24.8872 50.9004L29.5388 52.1542L29.4304 52.7572L24.6876 51.6138L24.8872 50.9004Z" fill="#263238"/>
<path d="M30.1912 52.3292L30.1266 52.9246L29.5864 52.7954L29.708 52.1998L30.1912 52.3292Z" fill="#263238"/>
<path d="M26.7882 51.4594L26.6636 52.0442C26.6528 52.0946 26.6844 52.1444 26.7346 52.1562L27.8292 52.4138C27.881 52.426 27.9328 52.393 27.9436 52.3408L28.0582 51.7904C28.0684 51.7412 28.0386 51.6926 27.9902 51.6796L26.9058 51.3876C26.853 51.3736 26.7996 51.4062 26.7882 51.4594Z" fill="white"/>
<path d="M32.1206 44.1684L32.0902 44.0514L32.1762 43.9666L32.3674 44.0192C32.35 43.9406 32.2908 43.8738 32.2076 43.851C32.1286 43.8292 32.048 43.8528 31.9928 43.9056C31.9846 43.901 31.976 43.8974 31.9666 43.8948L31.4378 43.7448C31.4284 43.7422 31.419 43.741 31.4096 43.7408C31.3892 43.6672 31.332 43.6058 31.2528 43.5842C31.1696 43.5614 31.0848 43.5884 31.0296 43.6472L31.2208 43.6998L31.2512 43.8168L31.1652 43.9016L30.974 43.849C30.9914 43.9276 31.0506 43.9944 31.1338 44.0172C31.2128 44.039 31.2934 44.0154 31.3486 43.9626C31.3568 43.9672 31.3656 43.9708 31.3748 43.9734L31.9036 44.1234C31.913 44.126 31.9224 44.1272 31.9318 44.1276C31.9522 44.2012 32.0094 44.2626 32.0884 44.2842C32.1716 44.307 32.2566 44.28 32.3116 44.2212L32.1206 44.1684Z" fill="#407BFF"/>
<path d="M53.9422 82.6918V83.2948C53.9422 83.37 54.0034 83.4294 54.0784 83.4294H71.107C71.7366 83.4294 72.1658 82.7934 71.931 82.2108L66.5346 68.8462L57.8144 68.9058L58.112 70.6398L60.0356 81.8632C60.0982 82.225 59.8194 82.5572 59.4514 82.5572H54.0786C54.0034 82.557 53.9422 82.6166 53.9422 82.6918Z" fill="#407BFF"/>
<path opacity="0.6" d="M53.9422 82.6918V83.2948C53.9422 83.37 54.0034 83.4294 54.0784 83.4294H71.107C71.7366 83.4294 72.1658 82.7934 71.931 82.2108L68.5852 73.926L66.5348 68.8462L57.8146 68.9058L58.1122 70.6398L58.9486 75.5208L60.0356 81.8632C60.0982 82.225 59.8194 82.5572 59.4514 82.5572H54.0786C54.0034 82.557 53.9422 82.6166 53.9422 82.6918Z" fill="white"/>
<path opacity="0.2" d="M59.4514 82.557H70.5308C70.808 82.557 70.9962 82.275 70.8896 82.019L66.1586 70.6396H58.112L60.0356 81.863C60.0982 82.225 59.8194 82.557 59.4514 82.557Z" fill="black"/>
<path opacity="0.1" d="M57.8144 68.9058L58.112 70.6398L58.9486 75.5206L68.5852 73.926L66.5346 68.8462L57.8144 68.9058Z" fill="black"/>
<path d="M40.8572 43.9922H41.7128H80.3732H81.2288C81.7994 43.9922 82.262 44.4548 82.262 45.0254V72.3564C82.262 72.927 81.7994 73.3896 81.2288 73.3896H80.3732H41.713H40.8574C40.2868 73.3896 39.8242 72.927 39.8242 72.3564V45.0252C39.8242 44.4546 40.2866 43.9922 40.8572 43.9922Z" fill="#407BFF"/>
<path opacity="0.7" d="M40.8572 43.9922H41.7128H80.3732H81.2288C81.7994 43.9922 82.262 44.4548 82.262 45.0254V72.3564C82.262 72.927 81.7994 73.3896 81.2288 73.3896H80.3732H41.713H40.8574C40.2868 73.3896 39.8242 72.927 39.8242 72.3564V45.0252C39.8242 44.4546 40.2866 43.9922 40.8572 43.9922Z" fill="white"/>
<path opacity="0.2" d="M80.3738 73.3888H81.2296C81.7996 73.3888 82.2616 72.9268 82.2616 72.3568V45.0258C82.2616 44.4542 81.7996 43.9922 81.2296 43.9922H80.3738C80.9438 43.9922 81.4058 44.4542 81.4058 45.0258V72.3568C81.4058 72.9268 80.9436 73.3888 80.3738 73.3888Z" fill="black"/>
<path d="M80.4742 45.0038H40.7546V71.3588H80.4742V45.0038Z" fill="#263238"/>
<path d="M80.4748 45.0038H40.7546V47.026H80.4748V45.0038Z" fill="#407BFF"/>
<path opacity="0.2" d="M79.5453 46.087C79.5453 46.3598 79.3241 46.581 79.0513 46.581C78.7785 46.581 78.5573 46.3598 78.5573 46.087C78.5573 45.8142 78.7785 45.593 79.0513 45.593C79.3241 45.593 79.5453 45.8142 79.5453 46.087Z" fill="black"/>
<path opacity="0.2" d="M77.9146 46.087C77.9146 46.3598 77.6934 46.581 77.4206 46.581C77.1478 46.581 76.9266 46.3598 76.9266 46.087C76.9266 45.8142 77.1478 45.593 77.4206 45.593C77.6934 45.593 77.9146 45.8142 77.9146 46.087Z" fill="black"/>
<path opacity="0.2" d="M76.2838 46.087C76.2838 46.3598 76.0626 46.581 75.7898 46.581C75.517 46.581 75.2958 46.3598 75.2958 46.087C75.2958 45.8142 75.517 45.593 75.7898 45.593C76.0626 45.593 76.2838 45.8142 76.2838 46.087Z" fill="black"/>
<path opacity="0.4" d="M80.474 47.0368H40.7546V53.878H80.474V47.0368Z" fill="white"/>
<path d="M41.664 47.3396L40.7546 48.9702V47.3396H41.664Z" fill="#263238"/>
<path d="M46.5704 47.3396L43.0832 53.5966H40.7546V52.8302L43.8138 47.3396H46.5704Z" fill="#263238"/>
<path d="M47.9751 53.6224H45.2197L48.7213 47.3388H51.4767L47.9751 53.6224Z" fill="#263238"/>
<path d="M52.8814 53.6224H50.126L53.6278 47.3388H56.3832L52.8814 53.6224Z" fill="#263238"/>
<path d="M57.7881 53.6224H55.0327L58.5343 47.3388H61.2897L57.7881 53.6224Z" fill="#263238"/>
<path d="M62.6947 53.6224H59.9393L63.4409 47.3388H66.1963L62.6947 53.6224Z" fill="#263238"/>
<path d="M67.6012 53.5764H64.8456L68.3474 47.2926H71.1028L67.6012 53.5764Z" fill="#263238"/>
<path d="M72.5077 53.5764H69.7523L73.2541 47.2926H76.0095L72.5077 53.5764Z" fill="#263238"/>
<path d="M80.4743 47.3186V48.085L77.4151 53.5756H74.6583L78.1457 47.3186H80.4743Z" fill="#263238"/>
<path d="M80.4742 51.9922V53.5966H79.58L80.4742 51.9922Z" fill="#263238"/>
<path opacity="0.4" d="M80.474 64.4896H40.7546V71.3308H80.474V64.4896Z" fill="white"/>
<path d="M41.664 64.8498L40.7546 66.4666V64.8498H41.664Z" fill="#263238"/>
<path d="M46.5704 64.8498L43.0832 71.0534H40.7546V70.2936L43.8138 64.8498H46.5704Z" fill="#263238"/>
<path d="M47.9751 71.0792H45.2197L48.7213 64.849H51.4767L47.9751 71.0792Z" fill="#263238"/>
<path d="M52.8814 71.0792H50.126L53.6278 64.849H56.3832L52.8814 71.0792Z" fill="#263238"/>
<path d="M57.7881 71.0792H55.0327L58.5343 64.849H61.2897L57.7881 71.0792Z" fill="#263238"/>
<path d="M62.6947 71.0792H59.9393L63.4409 64.849H66.1963L62.6947 71.0792Z" fill="#263238"/>
<path d="M67.6012 71.0334H64.8456L68.3474 64.8034H71.1028L67.6012 71.0334Z" fill="#263238"/>
<path d="M72.5077 71.0334H69.7523L73.2541 64.8034H76.0095L72.5077 71.0334Z" fill="#263238"/>
<path d="M80.4743 64.829V65.589L77.4151 71.0328H74.6583L78.1457 64.829H80.4743Z" fill="#263238"/>
<path d="M80.4742 69.4628V71.0534H79.58L80.4742 69.4628Z" fill="#263238"/>
<path d="M54.0348 60.2008V60.7696H51.2946V57.116H53.9616V57.685H51.973V58.635H53.7372V59.1934H51.973V60.2008H54.0348Z" fill="white"/>
<path d="M57.1814 60.7696L56.435 59.6996C56.388 59.7048 56.341 59.7048 56.294 59.7048H55.4692V60.7696H54.7908V57.116H56.294C57.2544 57.116 57.8492 57.6066 57.8492 58.4158C57.8492 58.969 57.5674 59.3762 57.0716 59.5692L57.912 60.7698H57.1814V60.7696ZM56.2628 57.6902H55.4694V59.1464H56.2628C56.8578 59.1464 57.1658 58.875 57.1658 58.4156C57.1658 57.9562 56.8578 57.6902 56.2628 57.6902Z" fill="white"/>
<path d="M60.996 60.7696L60.2496 59.6996C60.2026 59.7048 60.1556 59.7048 60.1086 59.7048H59.284V60.7696H58.6054V57.116H60.1086C61.069 57.116 61.664 57.6066 61.664 58.4158C61.664 58.969 61.3822 59.3762 60.8864 59.5692L61.7268 60.7698H60.996V60.7696ZM60.0774 57.6902H59.284V59.1464H60.0774C60.6724 59.1464 60.9804 58.875 60.9804 58.4156C60.9804 57.9562 60.6724 57.6902 60.0774 57.6902Z" fill="white"/>
<path d="M62.159 58.9428C62.159 57.8624 62.9942 57.0638 64.1268 57.0638C65.2594 57.0638 66.0946 57.8572 66.0946 58.9428C66.0946 60.0286 65.2596 60.8218 64.1268 60.8218C62.994 60.8218 62.159 60.0232 62.159 58.9428ZM65.4106 58.9428C65.4106 58.1964 64.8626 57.6588 64.1266 57.6588C63.3906 57.6588 62.8426 58.1964 62.8426 58.9428C62.8426 59.6892 63.3906 60.2268 64.1266 60.2268C64.8626 60.2268 65.4106 59.6892 65.4106 58.9428Z" fill="white"/>
<path d="M69.2044 60.7696L68.458 59.6996C68.411 59.7048 68.364 59.7048 68.317 59.7048H67.4922V60.7696H66.8136V57.116H68.3168C69.2772 57.116 69.8722 57.6066 69.8722 58.4158C69.8722 58.969 69.5902 59.3762 69.0946 59.5692L69.935 60.7698H69.2044V60.7696ZM68.2856 57.6902H67.4924V59.1464H68.2856C68.8806 59.1464 69.1886 58.875 69.1886 58.4156C69.1886 57.9562 68.8808 57.6902 68.2856 57.6902Z" fill="white"/>
<path opacity="0.4" d="M73.1222 61.3452H77.4236C77.8392 61.3452 78.0988 60.8954 77.8912 60.5354L75.7406 56.8102C75.5328 56.4504 75.0134 56.4504 74.8056 56.8102L72.655 60.5354C72.447 60.8952 72.7068 61.3452 73.1222 61.3452ZM75.5624 57.8266L75.4672 59.6824H75.0748L74.9756 57.8266H75.5624ZM74.9558 60.3206C74.9558 60.1502 75.0866 60.0152 75.269 60.0152C75.4554 60.0152 75.5902 60.1502 75.5902 60.3206C75.5902 60.491 75.4554 60.6298 75.269 60.6298C75.0864 60.63 74.9558 60.4912 74.9558 60.3206Z" fill="white"/>
<path opacity="0.4" d="M43.806 61.3452H48.1074C48.523 61.3452 48.7826 60.8954 48.575 60.5354L46.4244 56.8102C46.2166 56.4504 45.6972 56.4504 45.4894 56.8102L43.3388 60.5354C43.1308 60.8952 43.3904 61.3452 43.806 61.3452ZM46.246 57.8266L46.1508 59.6824H45.7584L45.6592 57.8266H46.246ZM45.6396 60.3206C45.6396 60.1502 45.7704 60.0152 45.9528 60.0152C46.1392 60.0152 46.274 60.1502 46.274 60.3206C46.274 60.491 46.1392 60.6298 45.9528 60.6298C45.7702 60.63 45.6396 60.4912 45.6396 60.3206Z" fill="white"/>
<path opacity="0.1" d="M44.8949 45.0036C50.3867 50.5058 64.4921 62.7508 80.4749 61.8454V45.0036H44.8949Z" fill="white"/>
<path opacity="0.1" d="M40.7551 55.1162V71.359H64.6685C63.7513 68.0782 61.9183 63.5858 58.3621 60.3752C51.9647 54.5994 44.5407 54.6164 40.7551 55.1162Z" fill="white"/>
<path d="M74.7992 82.1994L75.512 82.5114C75.262 82.7618 74.779 82.9282 74.3714 82.7496C73.909 82.5472 73.6916 82.0228 73.8252 81.5484C73.8716 81.3836 73.955 81.245 74.0856 81.1264L72.1508 76.1792C71.4544 76.2086 71.1598 75.5566 71.1762 75.108L71.8842 75.4218C72.051 75.4948 72.243 75.4198 72.316 75.253C72.389 75.0862 72.3118 74.8922 72.145 74.8192L71.4316 74.5074C71.6816 74.257 72.1642 74.0908 72.572 74.2694C73.0344 74.4718 73.2804 74.985 73.1468 75.4594C73.1004 75.6242 73.0456 75.7516 72.915 75.8702L74.8498 80.8174C75.3928 80.848 75.812 81.4512 75.7958 81.8998L75.0734 81.5916C74.9066 81.5186 74.7074 81.5966 74.6344 81.7632C74.5612 81.93 74.6324 82.1264 74.7992 82.1994Z" fill="#407BFF"/>
<path opacity="0.2" d="M74.7992 82.1994L75.512 82.5114C75.262 82.7618 74.779 82.9282 74.3714 82.7496C73.909 82.5472 73.6916 82.0228 73.8252 81.5484C73.8716 81.3836 73.955 81.245 74.0856 81.1264L72.1508 76.1792C71.4544 76.2086 71.1598 75.5566 71.1762 75.108L71.8842 75.4218C72.051 75.4948 72.243 75.4198 72.316 75.253C72.389 75.0862 72.3118 74.8922 72.145 74.8192L71.4316 74.5074C71.6816 74.257 72.1642 74.0908 72.572 74.2694C73.0344 74.4718 73.2804 74.985 73.1468 75.4594C73.1004 75.6242 73.0456 75.7516 72.915 75.8702L74.8498 80.8174C75.3928 80.848 75.812 81.4512 75.7958 81.8998L75.0734 81.5916C74.9066 81.5186 74.7074 81.5966 74.6344 81.7632C74.5612 81.93 74.6324 82.1264 74.7992 82.1994Z" fill="white"/>
<path d="M69.2784 77.8286L68.5234 78.0162C68.5686 77.6652 68.8498 77.2388 69.2818 77.1314C69.7718 77.0096 70.2638 77.2924 70.4474 77.7498C70.5112 77.9086 70.5296 78.0694 70.4984 78.243L75.0498 80.9824C75.5836 80.5342 76.2148 80.871 76.4756 81.2364L75.7232 81.4196C75.5466 81.4636 75.4402 81.6402 75.4842 81.8168C75.5282 81.9936 75.7076 82.1 75.8844 82.0562L76.6398 81.868C76.5946 82.219 76.3134 82.645 75.8814 82.7524C75.3914 82.8742 74.8836 82.6176 74.7 82.1604C74.6362 82.0016 74.6018 81.8672 74.633 81.6936L70.0816 78.9542C69.6328 79.2612 68.9326 79.0392 68.6718 78.6738L69.4322 78.4774C69.609 78.4334 69.7192 78.2502 69.6754 78.0736C69.6312 77.8968 69.455 77.7846 69.2784 77.8286Z" fill="#407BFF"/>
<path opacity="0.2" d="M69.2784 77.8286L68.5234 78.0162C68.5686 77.6652 68.8498 77.2388 69.2818 77.1314C69.7718 77.0096 70.2638 77.2924 70.4474 77.7498C70.5112 77.9086 70.5296 78.0694 70.4984 78.243L75.0498 80.9824C75.5836 80.5342 76.2148 80.871 76.4756 81.2364L75.7232 81.4196C75.5466 81.4636 75.4402 81.6402 75.4842 81.8168C75.5282 81.9936 75.7076 82.1 75.8844 82.0562L76.6398 81.868C76.5946 82.219 76.3134 82.645 75.8814 82.7524C75.3914 82.8742 74.8836 82.6176 74.7 82.1604C74.6362 82.0016 74.6018 81.8672 74.633 81.6936L70.0816 78.9542C69.6328 79.2612 68.9326 79.0392 68.6718 78.6738L69.4322 78.4774C69.609 78.4334 69.7192 78.2502 69.6754 78.0736C69.6312 77.8968 69.455 77.7846 69.2784 77.8286Z" fill="white"/>
<path d="M84.5779 75.5512L84.5773 75.553L84.5895 75.5208H77.5553L75.9059 79.878H82.9101L82.9057 79.8894H83.4847L84.9685 76.004L84.5779 75.5512Z" fill="#263238"/>
<path opacity="0.2" d="M84.5779 75.5512L84.5773 75.553L84.5895 75.5208H77.5553L75.9059 79.878H82.9101L82.9057 79.8894H83.4847L84.9685 76.004L84.5779 75.5512Z" fill="white"/>
<path opacity="0.4" d="M84.5895 75.5208L82.9401 79.8782L75.9059 79.878L77.5553 75.5208H84.5895Z" fill="black"/>
<path d="M72.3796 78.5706L74.0074 80.6616L74.5916 80.5738L72.8742 78.5706H72.3796Z" fill="#263238"/>
<path opacity="0.1" d="M72.3796 78.5706L74.0074 80.6616L74.5916 80.5738L72.8742 78.5706H72.3796Z" fill="white"/>
<path d="M72.8741 76.5926L74.5017 78.6836L75.0861 78.5958L73.3685 76.5926H72.8741Z" fill="#263238"/>
<path opacity="0.1" d="M72.8741 76.5926L74.5017 78.6836L75.0861 78.5958L73.3685 76.5926H72.8741Z" fill="white"/>
<path d="M70.7755 83.4294H82.9401V79.878H70.7755V83.4294Z" fill="#263238"/>
<path opacity="0.2" d="M70.7755 83.4294H82.9401V79.878H70.7755V83.4294Z" fill="white"/>
<path d="M72.0949 78.7904H83.2699V78.2286H72.0949V78.7904Z" fill="#263238"/>
<path opacity="0.2" d="M72.0949 78.7904H83.2699V78.2286H72.0949V78.7904Z" fill="white"/>
<path opacity="0.2" d="M78.9805 78.7904H83.2699V78.2286H78.9805V78.7904Z" fill="black"/>
<path d="M72.7549 77.141H83.9297V76.5792H72.7549V77.141Z" fill="#263238"/>
<path opacity="0.2" d="M72.7549 77.141H83.9297V76.5792H72.7549V77.141Z" fill="white"/>
<path opacity="0.2" d="M79.6403 77.141H83.9297V76.5792H79.6403V77.141Z" fill="black"/>
<path opacity="0.2" d="M78.1559 83.4294H82.9401V79.878H78.1559V83.4294Z" fill="black"/>
</svg>
