<svg width="100" height="72" viewBox="0 0 100 72" fill="none" xmlns="http://www.w3.org/2000/svg">
	<path d="M22.2985 0.00877902C22.6058 0.00785037 22.9132 0.00657139 23.2205 0.00497517C24.0599 0.00163257 24.8992 0.0032688 25.7386 0.00576875C26.6459 0.00759533 27.5531 0.00477623 28.4603 0.00256624C30.2356 -0.00100616 32.0108 -0.000241475 33.7861 0.00209361C35.2293 0.00391308 36.6724 0.00415635 38.1156 0.00328145C38.3213 0.00315815 38.5269 0.00303484 38.7388 0.00290781C39.1565 0.00265053 39.5743 0.00238964 39.9921 0.00212519C43.9069 -0.00016769 47.8217 0.00246629 51.7365 0.00679255C55.0934 0.0103874 58.4502 0.00976296 61.8071 0.00605326C65.7082 0.00174416 69.6093 5.33037e-05 73.5104 0.0025226C73.9266 0.00277891 74.3428 0.00303188 74.759 0.00328145C74.9638 0.00340559 75.1686 0.00352973 75.3795 0.00365763C76.8205 0.00435152 78.2614 0.00318157 79.7024 0.00128624C81.4591 -0.000973774 83.2158 -0.000353143 84.9726 0.00392614C85.8684 0.00603654 86.7641 0.00687642 87.6599 0.00420845C88.4809 0.00180037 89.3018 0.00314528 90.1228 0.00740905C90.4188 0.00830351 90.7149 0.00786052 91.0109 0.00589967C93.662 -0.010306 95.7228 0.458776 97.6764 2.32379C100.048 4.80758 100.007 7.49594 99.9934 10.7366C99.9945 11.1813 99.9959 11.6259 99.9977 12.0706C100.001 13.2734 99.9999 14.4762 99.9974 15.679C99.9953 16.9404 99.9972 18.2017 99.9985 19.4631C100 21.7164 99.9975 23.9698 99.9934 26.2231C99.9898 28.2625 99.9905 30.3018 99.9942 32.3412C99.9985 34.7146 100 37.0879 99.9977 39.4613C99.9965 40.7158 99.9963 41.9702 99.9989 43.2247C100.001 44.4043 99.9996 45.5839 99.995 46.7635C99.9939 47.1953 99.9942 47.6272 99.996 48.059C100.007 51.0955 99.8791 53.5267 97.6764 55.8341C95.465 57.9451 93.1148 58.1641 90.1956 58.0972C89.8858 58.0931 89.5761 58.0895 89.2663 58.0862C88.5157 58.0774 87.7652 58.0636 87.0146 58.0469C87.0188 58.2364 87.023 58.4259 87.0274 58.6212C87.0412 59.3347 87.0513 60.048 87.0588 60.7616C87.0628 61.0685 87.0683 61.3753 87.0753 61.6822C87.1371 64.4482 86.7786 66.6379 84.8018 68.7087C82.7105 70.7051 80.5097 71.0423 77.7015 71.0237C77.3942 71.0246 77.0868 71.0259 76.7795 71.0275C75.9401 71.0309 75.1008 71.0292 74.2614 71.0267C73.3541 71.0249 72.4469 71.0277 71.5396 71.0299C69.7644 71.0335 67.9892 71.0327 66.2139 71.0304C64.7707 71.0286 63.3276 71.0283 61.8844 71.0292C61.6787 71.0293 61.4731 71.0295 61.2612 71.0296C60.8435 71.0298 60.4257 71.0301 60.0079 71.0304C56.0931 71.0327 52.1783 71.03 48.2635 71.0257C44.9066 71.0221 41.5497 71.0227 38.1929 71.0264C34.2918 71.0307 30.3907 71.0324 26.4896 71.03C26.0734 71.0297 25.6572 71.0295 25.241 71.0292C25.0362 71.0291 24.8314 71.029 24.6204 71.0288C23.1795 71.0281 21.7386 71.0293 20.2976 71.0312C18.5409 71.0335 16.7842 71.0328 15.0274 71.0286C14.1316 71.0265 13.2359 71.0256 12.3401 71.0283C11.5191 71.0307 10.6982 71.0293 9.87722 71.0251C9.58118 71.0242 9.28514 71.0246 8.98911 71.0266C6.33795 71.0428 4.2772 70.5737 2.32356 68.7087C-0.0475507 66.2249 -0.0067602 63.5366 0.00660715 60.2959C0.00551556 59.8512 0.00408215 59.4066 0.00233433 58.9619C-0.00132202 57.7591 8.37713e-05 56.5563 0.00263975 55.3535C0.00468308 54.0921 0.00278556 52.8307 0.00152397 51.5694C-3.17325e-05 49.316 0.00246261 47.0627 0.00656111 44.8094C0.0101557 42.77 0.00953067 40.7307 0.00582134 38.6913C0.00150648 36.3179 -8.24612e-05 33.9446 0.00229135 31.5712C0.00354307 30.3167 0.00372003 29.0622 0.00105432 27.8078C-0.00127742 26.6281 0.000355701 25.4486 0.00499256 24.269C0.00605263 23.8372 0.00575768 23.4053 0.00397654 22.9735C-0.00738993 19.937 0.12091 17.5058 2.32356 15.1984C4.53495 13.0874 6.88524 12.8684 9.80443 12.9353C10.1142 12.9394 10.4239 12.943 10.7336 12.9463C11.4843 12.9551 12.2348 12.9689 12.9854 12.9856C12.9812 12.7961 12.9769 12.6066 12.9726 12.4113C12.9588 11.6978 12.9487 10.9845 12.9412 10.2709C12.9372 9.96401 12.9317 9.65715 12.9247 9.35032C12.8629 6.58433 13.2214 4.39457 15.1982 2.32379C17.2895 0.327394 19.4903 -0.00982164 22.2985 0.00877902ZM17.3607 5.22813C16.3563 6.46074 16.176 7.76802 16.1844 9.33161C16.185 9.54554 16.1857 9.75948 16.1864 9.9799C16.188 10.2001 16.1897 10.4202 16.1915 10.647C16.1924 10.8719 16.1933 11.0967 16.1942 11.3283C16.1966 11.8808 16.1999 12.4332 16.204 12.9856C16.4077 12.9858 16.4077 12.9858 16.6155 12.986C24.6671 12.9932 32.7187 13.0046 40.7702 13.0214C41.7374 13.0234 42.7045 13.0254 43.6717 13.0274C43.9605 13.0279 43.9605 13.0279 44.2551 13.0285C47.3711 13.0348 50.4871 13.0382 53.6031 13.0406C56.8013 13.0431 59.9994 13.0486 63.1976 13.0569C65.1705 13.062 67.1433 13.0647 69.1161 13.0644C70.4697 13.0643 71.8232 13.0673 73.1768 13.0725C73.9573 13.0755 74.7377 13.0771 75.5182 13.0753C76.2339 13.0736 76.9496 13.0757 77.6653 13.0806C78.0444 13.0823 78.4236 13.0801 78.8027 13.0776C81.1545 13.1013 83.1061 13.7232 84.8018 15.3996C86.7356 17.672 86.9034 19.8448 86.9004 22.6959C86.9022 23.0469 86.9043 23.398 86.9066 23.7491C86.9122 24.6978 86.9141 25.6465 86.9153 26.5953C86.9172 27.5884 86.9224 28.5815 86.9273 29.5746C86.9361 31.4533 86.9419 33.332 86.9465 35.2107C86.952 37.3503 86.9608 39.4899 86.9699 41.6295C86.9886 46.0291 87.003 50.4286 87.0146 54.8282C87.7816 54.84 88.5485 54.8471 89.3155 54.8534C89.5306 54.8567 89.7457 54.8601 89.9673 54.8636C91.7821 54.8747 93.4093 54.8141 94.8601 53.6212C96.4495 52.0204 96.7019 50.5003 96.6975 48.2788C96.698 48.1081 96.6984 47.9375 96.6989 47.7617C96.7002 47.1914 96.7 46.6212 96.6998 46.0509C96.7004 45.6414 96.7011 45.232 96.7019 44.8225C96.7037 43.7111 96.7041 42.5996 96.7043 41.4882C96.7044 40.7936 96.7048 40.0989 96.7054 39.4043C96.7072 36.98 96.708 34.5558 96.7079 32.1315C96.7078 29.8731 96.7099 27.6147 96.7131 25.3563C96.7157 23.4161 96.7168 21.476 96.7166 19.5359C96.7166 18.3777 96.7172 17.2195 96.7193 16.0612C96.7212 14.9716 96.7213 13.882 96.7198 12.7924C96.7196 12.3932 96.7201 11.994 96.7213 11.5948C96.7228 11.0484 96.7219 10.5021 96.7203 9.95572C96.7219 9.72065 96.7219 9.72065 96.7235 9.48084C96.7123 7.69087 96.4496 6.1191 95.1336 4.81244C93.762 3.57508 92.423 3.30496 90.5933 3.30374C90.2214 3.30277 90.2214 3.30277 89.8419 3.30178C89.5684 3.30207 89.2949 3.30239 89.0214 3.30272C88.7296 3.30235 88.4377 3.30188 88.1459 3.30134C87.3448 3.30011 86.5437 3.30014 85.7425 3.30037C84.8782 3.30042 84.0139 3.29931 83.1495 3.29835C81.4564 3.29668 79.7633 3.29613 78.0702 3.29602C76.694 3.29592 75.3177 3.29551 73.9414 3.29487C70.0393 3.2931 66.1371 3.29217 62.2349 3.29232C61.9194 3.29233 61.9194 3.29233 61.5975 3.29234C61.3869 3.29235 61.1762 3.29236 60.9593 3.29237C57.5458 3.29245 54.1324 3.29053 50.719 3.28769C47.2139 3.2848 43.7088 3.28341 40.2037 3.28358C38.2359 3.28365 36.2682 3.2831 34.3004 3.28093C32.625 3.2791 30.9497 3.27866 29.2744 3.28003C28.4198 3.28069 27.5652 3.2807 26.7106 3.27895C25.9277 3.27737 25.1449 3.27766 24.362 3.27941C24.0793 3.27972 23.7967 3.27936 23.514 3.27823C21.0912 3.26926 19.0794 3.32315 17.3607 5.22813ZM4.4861 18.1028C3.35075 19.496 3.29905 21.0087 3.30249 22.7537C3.30204 22.9244 3.30158 23.095 3.30111 23.2708C3.29984 23.841 3.3 24.4113 3.30017 24.9816C3.29957 25.3911 3.29888 25.8005 3.29812 26.21C3.29634 27.3214 3.29587 28.4328 3.29574 29.5443C3.2956 30.2389 3.29517 30.9336 3.29464 31.6282C3.29278 34.0525 3.29195 36.4767 3.29211 38.901C3.29223 41.1594 3.29011 43.4178 3.28693 45.6762C3.2843 47.6163 3.28323 49.5565 3.28335 51.4966C3.2834 52.6548 3.28283 53.813 3.2807 54.9713C3.27875 56.0609 3.27874 57.1505 3.2802 58.2401C3.28041 58.6393 3.27994 59.0385 3.27872 59.4377C3.27716 59.9841 3.27811 60.5304 3.27965 61.0768C3.27862 61.2335 3.27758 61.3902 3.27652 61.5517C3.28766 63.3416 3.55036 64.9134 4.86643 66.2201C6.23795 67.4574 7.57699 67.7275 9.40672 67.7287C9.77864 67.7297 9.77864 67.7297 10.1581 67.7307C10.4316 67.7304 10.7051 67.7301 10.9786 67.7298C11.2704 67.7301 11.5623 67.7306 11.8541 67.7311C12.6552 67.7324 13.4563 67.7324 14.2575 67.7321C15.1218 67.7321 15.9861 67.7332 16.8505 67.7341C18.5436 67.7358 20.2367 67.7364 21.9298 67.7365C23.306 67.7366 24.6823 67.737 26.0586 67.7376C29.9607 67.7394 33.8629 67.7403 37.7651 67.7402C38.0806 67.7402 38.0806 67.7402 38.4025 67.7401C38.6131 67.7401 38.8237 67.7401 39.0407 67.7401C42.4542 67.74 45.8676 67.742 49.281 67.7448C52.7861 67.7477 56.2912 67.7491 59.7963 67.7489C61.7641 67.7488 63.7318 67.7494 65.6996 67.7516C67.375 67.7534 69.0503 67.7538 70.7256 67.7525C71.5802 67.7518 72.4348 67.7518 73.2894 67.7535C74.0723 67.7551 74.8551 67.7548 75.638 67.7531C75.9207 67.7528 76.2033 67.7531 76.486 67.7543C79.4243 67.7891 79.4243 67.7891 81.9855 66.4959C83.5749 64.895 83.8272 63.3749 83.8229 61.1534C83.8233 60.9828 83.8238 60.8122 83.8242 60.6364C83.8255 60.0661 83.8253 59.4958 83.8252 58.9256C83.8258 58.5161 83.8265 58.1066 83.8272 57.6971C83.829 56.5857 83.8295 55.4743 83.8296 54.3629C83.8297 53.6682 83.8302 52.9736 83.8307 52.2789C83.8326 49.8547 83.8334 47.4304 83.8332 45.0062C83.8331 42.7478 83.8352 40.4893 83.8384 38.2309C83.841 36.2908 83.8421 34.3507 83.842 32.4106C83.8419 31.2523 83.8425 30.0941 83.8446 28.9359C83.8466 27.8463 83.8466 26.7567 83.8451 25.6671C83.8449 25.2679 83.8454 24.8686 83.8466 24.4694C83.8482 23.9231 83.8472 23.3767 83.8457 22.8304C83.8472 22.5953 83.8472 22.5953 83.8488 22.3555C83.8377 20.5655 83.575 18.9938 82.2589 17.6871C80.8874 16.4497 79.5484 16.1796 77.7186 16.1784C77.3467 16.1774 77.3467 16.1774 76.9673 16.1764C76.6938 16.1767 76.4203 16.177 76.1468 16.1774C75.8549 16.177 75.5631 16.1765 75.2713 16.176C74.4701 16.1748 73.669 16.1748 72.8679 16.175C72.0035 16.1751 71.1392 16.174 70.2749 16.173C68.5818 16.1713 66.8887 16.1708 65.1956 16.1707C63.8193 16.1706 62.4431 16.1702 61.0668 16.1695C57.1646 16.1677 53.2624 16.1668 49.3602 16.167C49.0447 16.167 49.0447 16.167 48.7228 16.167C48.5122 16.167 48.3016 16.167 48.0846 16.167C44.6712 16.1671 41.2578 16.1652 37.8443 16.1623C34.3392 16.1594 30.8341 16.1581 27.329 16.1582C25.3613 16.1583 23.3935 16.1577 21.4257 16.1556C19.7504 16.1538 18.0751 16.1533 16.3997 16.1547C15.5451 16.1553 14.6905 16.1553 13.836 16.1536C13.0531 16.152 12.2702 16.1523 11.4873 16.1541C11.2047 16.1544 10.922 16.154 10.6394 16.1529C8.21657 16.1439 6.20472 16.1978 4.4861 18.1028Z" fill="#0B9CD3" />
	<path d="M14.8167 25.759C15.1295 25.7558 15.1295 25.7558 15.4486 25.7526C15.6774 25.7544 15.9062 25.7562 16.142 25.7581C16.5069 25.7562 16.5069 25.7562 16.8792 25.7543C17.5548 25.7516 18.2302 25.7526 18.9058 25.7551C19.6342 25.7569 20.3626 25.7541 21.0911 25.7519C22.5182 25.7483 23.9453 25.7491 25.3724 25.7514C26.532 25.7532 27.6917 25.7535 28.8513 25.7526C29.0987 25.7524 29.0987 25.7524 29.3511 25.7522C29.6861 25.7519 30.0211 25.7517 30.3561 25.7514C33.4989 25.7491 36.6418 25.7518 39.7846 25.7561C42.4825 25.7597 45.1804 25.7591 47.8783 25.7554C51.0098 25.751 54.1412 25.7493 57.2727 25.7518C57.6065 25.7521 57.9403 25.7523 58.2741 25.7526C58.4383 25.7527 58.6025 25.7528 58.7717 25.753C59.9303 25.7537 61.0888 25.7525 62.2473 25.7506C63.6587 25.7483 65.0702 25.7489 66.4816 25.7532C67.2021 25.7553 67.9224 25.7562 68.6429 25.7535C69.4231 25.7507 70.2032 25.7541 70.9834 25.7581C71.3266 25.7554 71.3266 25.7554 71.6767 25.7526C71.8852 25.7547 72.0938 25.7568 72.3086 25.759C72.4887 25.7591 72.6689 25.7593 72.8545 25.7594C73.4906 25.8928 73.7341 26.1692 74.14 26.6649C74.2468 27.0673 74.2468 27.0673 74.2406 27.4696C74.2437 27.6687 74.2437 27.6687 74.2468 27.8719C74.0916 28.4564 73.7955 28.6951 73.3353 29.0789C72.8545 29.1798 72.8545 29.1798 72.3086 29.1802C71.9958 29.1833 71.9958 29.1833 71.6767 29.1865C71.4479 29.1847 71.2191 29.1829 70.9834 29.1811C70.6185 29.183 70.6185 29.183 70.2462 29.1849C69.5706 29.1876 68.8952 29.1866 68.2196 29.1841C67.4911 29.1823 66.7627 29.1851 66.0343 29.1873C64.6072 29.1909 63.1801 29.1901 61.753 29.1878C60.5933 29.186 59.4337 29.1857 58.2741 29.1866C58.0267 29.1868 58.0267 29.1868 57.7743 29.187C57.4393 29.1872 57.1043 29.1875 56.7693 29.1878C53.6264 29.19 50.4836 29.1874 47.3407 29.1831C44.6428 29.1795 41.9449 29.1801 39.247 29.1838C36.1156 29.1881 32.9841 29.1898 29.8527 29.1874C29.5189 29.1871 29.1851 29.1868 28.8513 29.1866C28.6871 29.1865 28.5228 29.1863 28.3536 29.1862C27.1951 29.1855 26.0366 29.1867 24.8781 29.1886C23.4666 29.1908 22.0552 29.1902 20.6437 29.186C19.9233 29.1838 19.2029 29.183 18.4825 29.1857C17.7023 29.1885 16.9222 29.1851 16.142 29.1811C15.7988 29.1838 15.7988 29.1838 15.4486 29.1865C15.2401 29.1844 15.0316 29.1823 14.8167 29.1802C14.6366 29.18 14.4565 29.1799 14.2709 29.1798C13.6348 29.0464 13.3913 28.77 12.9854 28.2743C12.8785 27.8719 12.8785 27.8719 12.8848 27.4696C12.8817 27.2704 12.8817 27.2704 12.8785 27.0673C13.1441 26.0674 13.8539 25.7597 14.8167 25.759Z" fill="#09A0D3" />
	<path d="M15.7891 54.7241C15.992 54.7227 16.1949 54.7213 16.4039 54.7198C17.075 54.7163 17.7458 54.7186 18.4169 54.7213C18.8829 54.7208 19.3488 54.72 19.8148 54.719C20.7916 54.7178 21.7683 54.7196 22.7451 54.7233C23.998 54.7279 25.2507 54.7253 26.5036 54.7204C27.4658 54.7175 28.4281 54.7185 29.3904 54.7205C29.8524 54.7211 30.3143 54.7204 30.7763 54.7185C31.4217 54.7165 32.0669 54.7196 32.7123 54.7241C32.9995 54.7217 32.9995 54.7217 33.2925 54.7192C34.586 54.7358 34.586 54.7358 35.2319 55.2119C35.5388 55.6666 35.6251 55.894 35.6166 56.4375C35.6197 56.6367 35.6197 56.6367 35.6229 56.8399C35.4575 57.4626 35.2338 57.6618 34.7114 58.0469C34.0462 58.1697 33.387 58.1567 32.7123 58.151C32.5094 58.1524 32.3065 58.1538 32.0975 58.1553C31.4264 58.1588 30.7556 58.1565 30.0845 58.1537C29.6185 58.1543 29.1526 58.1551 28.6866 58.1561C27.7098 58.1573 26.7331 58.1555 25.7563 58.1518C24.5034 58.1472 23.2507 58.1498 21.9978 58.1547C21.0356 58.1576 20.0733 58.1566 19.111 58.1546C18.649 58.154 18.1871 58.1547 17.7251 58.1566C17.0797 58.1586 16.4345 58.1555 15.7891 58.151C15.5977 58.1526 15.4062 58.1543 15.2089 58.1559C13.9154 58.1393 13.9154 58.1393 13.2694 57.6632C12.9626 57.2085 12.8763 56.9811 12.8848 56.4375C12.8817 56.2384 12.8817 56.2384 12.8785 56.0352C13.2678 54.5697 14.5442 54.7135 15.7891 54.7241Z" fill="#1384D2" />
	<path d="M15.4937 45.0681C15.6652 45.0667 15.8367 45.0653 16.0133 45.0638C16.5799 45.0603 17.1462 45.0626 17.7128 45.0654C18.1066 45.0648 18.5004 45.064 18.8942 45.063C19.7195 45.0618 20.5447 45.0636 21.3699 45.0673C22.428 45.0719 23.4858 45.0693 24.5439 45.0645C25.3571 45.0615 26.1702 45.0625 26.9834 45.0646C27.3735 45.0651 27.7636 45.0644 28.1537 45.0626C28.6989 45.0605 29.2439 45.0636 29.7891 45.0681C29.9504 45.0665 30.1118 45.0649 30.2781 45.0632C31.0024 45.0742 31.4109 45.1097 31.9948 45.5559C32.3226 46.0121 32.4066 46.2263 32.3979 46.7816C32.401 46.9807 32.401 46.9807 32.4042 47.1839C32.2423 47.7937 31.9945 48.0074 31.4927 48.3909C30.8997 48.4703 30.3819 48.501 29.7891 48.495C29.5318 48.4971 29.5318 48.4971 29.2694 48.4993C28.7028 48.5028 28.1365 48.5005 27.5699 48.4978C27.1761 48.4983 26.7823 48.4991 26.3885 48.5001C25.5632 48.5013 24.738 48.4996 23.9128 48.4958C22.8548 48.4912 21.7969 48.4939 20.7389 48.4987C19.9257 48.5016 19.1125 48.5007 18.2993 48.4986C17.9092 48.498 17.5191 48.4987 17.129 48.5006C16.5838 48.5026 16.0389 48.4995 15.4937 48.495C15.3323 48.4966 15.1709 48.4983 15.0047 48.5C14.2804 48.4889 13.8719 48.4534 13.2879 48.0072C12.9601 47.5511 12.8761 47.3369 12.8848 46.7816C12.8817 46.5824 12.8817 46.5824 12.8785 46.3792C13.2308 45.053 14.3229 45.0563 15.4937 45.0681Z" fill="#108DD3" />
</svg>
