<svg width="32" height="32" viewBox="0 0 32 32" fill="none" xmlns="http://www.w3.org/2000/svg"><g clip-path="url(#a)"><path d="M24.393 17.574h4.698c1.12 4.08-9.061 19.27-22.374 8.161L4.704 27.55C11.08 35.143 32 34.349 32 14.627h-8.167l-1.118-7.254H20.03l-3.133 9.748 1.12 3.74 3.02-7.594 1.902 10.201h2.349l-.895-5.894Z" fill="#549AEC"/><path d="M8.283 14.627h-5.37c0-6.007 9.51-18.475 22.487-8.274l1.79-1.814C16.337-5.208-.33 1.48.005 17.574h7.72l-1.12 5.668h2.573l1.902-9.975 3.692 9.975h2.35L12.086 7.373H9.402l-1.119 7.254Z" fill="#1668DC"/></g><defs><clipPath id="a"><path fill="#fff" d="M0 0h32v32H0z"/></clipPath></defs></svg>
